<svg xmlns="http://www.w3.org/2000/svg" xmlns:xlink="http://www.w3.org/1999/xlink" contentStyleType="text/css" height="353px" preserveAspectRatio="none" style="width:2435px;height:353px;background:#FFFFFF;" version="1.1" viewBox="0 0 2435 353" width="2435px" zoomAndPan="magnify"><defs/><g><!--class Localisation--><g id="elem_Localisation"><rect codeLine="2" fill="#F1F1F1" height="96.8906" id="Localisation" rx="2.5" ry="2.5" style="stroke:#181818;stroke-width:0.5;" width="115.1113" x="7" y="200.14"/><ellipse cx="22" cy="216.14" fill="#008000" rx="11" ry="11" style="stroke:#181818;stroke-width:1;"/><path d="M18.2188,222.64 L18.2188,210.14 L20.2188,210.14 L21.75,216.2806 L23.2813,210.14 L25.2813,210.14 L25.2813,222.64 L23.5156,222.64 L23.5156,220.14 Q23.5156,219.2806 23.5313,218.4213 Q23.5469,217.5463 23.5938,216.6869 Q23.6563,215.8275 23.7031,214.9681 Q23.7656,214.0931 23.8281,213.2181 L22.3906,218.89 L21.1094,218.89 L19.6719,213.2181 Q19.7344,214.0931 19.7813,214.9681 Q19.8438,215.8275 19.8906,216.6869 Q19.9531,217.5463 19.9688,218.4213 Q19.9844,219.2806 19.9844,220.14 L19.9844,222.64 L18.2188,222.64 Z " fill="#000000"/><text fill="#000000" font-family="sans-serif" font-size="14" lengthAdjust="spacing" textLength="83.1113" x="36" y="220.9867">Localisation</text><line style="stroke:#181818;stroke-width:0.5;" x1="8" x2="121.1113" y1="232.14" y2="232.14"/><ellipse cx="18" cy="245.7884" fill="#000000" rx="3" ry="3" style="stroke:#000000;stroke-width:1;"/><text fill="#000000" font-family="sans-serif" font-size="14" lengthAdjust="spacing" textLength="31.0762" x="27" y="249.1351">nom</text><ellipse cx="18" cy="262.0853" fill="#000000" rx="3" ry="3" style="stroke:#000000;stroke-width:1;"/><text fill="#000000" font-family="sans-serif" font-size="14" lengthAdjust="spacing" textLength="38.2607" x="27" y="265.432">taxes</text><ellipse cx="18" cy="278.3822" fill="#000000" rx="3" ry="3" style="stroke:#000000;stroke-width:1;"/><text fill="#000000" font-family="sans-serif" font-size="14" lengthAdjust="spacing" textLength="56.3623" x="27" y="281.7289">prix_m2</text><line style="stroke:#181818;stroke-width:0.5;" x1="8" x2="121.1113" y1="289.0306" y2="289.0306"/></g><!--class Local--><g id="elem_Local"><rect codeLine="8" fill="#F1F1F1" height="96.8906" id="Local" rx="2.5" ry="2.5" style="stroke:#181818;stroke-width:0.5;" width="105.2012" x="495.06" y="200.59"/><ellipse cx="526.5615" cy="216.59" fill="#008000" rx="11" ry="11" style="stroke:#181818;stroke-width:1;"/><path d="M522.7802,223.09 L522.7802,210.59 L524.7802,210.59 L526.3115,216.7306 L527.8427,210.59 L529.8427,210.59 L529.8427,223.09 L528.0771,223.09 L528.0771,220.59 Q528.0771,219.7306 528.0927,218.8712 Q528.1083,217.9962 528.1552,217.1369 Q528.2177,216.2775 528.2646,215.4181 Q528.3271,214.5431 528.3896,213.6681 L526.9521,219.34 L525.6708,219.34 L524.2333,213.6681 Q524.2958,214.5431 524.3427,215.4181 Q524.4052,216.2775 524.4521,217.1369 Q524.5146,217.9962 524.5302,218.8712 Q524.5458,219.7306 524.5458,220.59 L524.5458,223.09 L522.7802,223.09 Z " fill="#000000"/><text fill="#000000" font-family="sans-serif" font-size="14" lengthAdjust="spacing" textLength="36.5313" x="544.2285" y="221.4367">Local</text><line style="stroke:#181818;stroke-width:0.5;" x1="496.06" x2="599.2612" y1="232.59" y2="232.59"/><ellipse cx="506.06" cy="246.2384" fill="#000000" rx="3" ry="3" style="stroke:#000000;stroke-width:1;"/><text fill="#000000" font-family="sans-serif" font-size="14" lengthAdjust="spacing" textLength="31.0762" x="515.06" y="249.5851">nom</text><ellipse cx="506.06" cy="262.5353" fill="#000000" rx="3" ry="3" style="stroke:#000000;stroke-width:1;"/><text fill="#000000" font-family="sans-serif" font-size="14" lengthAdjust="spacing" textLength="79.2012" x="515.06" y="265.882">localisation</text><ellipse cx="506.06" cy="278.8322" fill="#000000" rx="3" ry="3" style="stroke:#000000;stroke-width:1;"/><text fill="#000000" font-family="sans-serif" font-size="14" lengthAdjust="spacing" textLength="51.7412" x="515.06" y="282.1789">surface</text><line style="stroke:#181818;stroke-width:0.5;" x1="496.06" x2="599.2612" y1="289.4806" y2="289.4806"/></g><!--class MatierePremiere--><g id="elem_MatierePremiere"><rect codeLine="14" fill="#F1F1F1" height="96.8906" id="MatierePremiere" rx="2.5" ry="2.5" style="stroke:#181818;stroke-width:0.5;" width="148.3408" x="818.39" y="200.14"/><ellipse cx="833.39" cy="216.14" fill="#008000" rx="11" ry="11" style="stroke:#181818;stroke-width:1;"/><path d="M829.6088,222.64 L829.6088,210.14 L831.6088,210.14 L833.14,216.2806 L834.6713,210.14 L836.6713,210.14 L836.6713,222.64 L834.9056,222.64 L834.9056,220.14 Q834.9056,219.2806 834.9213,218.4213 Q834.9369,217.5463 834.9838,216.6869 Q835.0463,215.8275 835.0931,214.9681 Q835.1556,214.0931 835.2181,213.2181 L833.7806,218.89 L832.4994,218.89 L831.0619,213.2181 Q831.1244,214.0931 831.1713,214.9681 Q831.2338,215.8275 831.2806,216.6869 Q831.3431,217.5463 831.3588,218.4213 Q831.3744,219.2806 831.3744,220.14 L831.3744,222.64 L829.6088,222.64 Z " fill="#000000"/><text fill="#000000" font-family="sans-serif" font-size="14" lengthAdjust="spacing" textLength="116.3408" x="847.39" y="220.9867">MatierePremiere</text><line style="stroke:#181818;stroke-width:0.5;" x1="819.39" x2="965.7308" y1="232.14" y2="232.14"/><ellipse cx="829.39" cy="245.7884" fill="#000000" rx="3" ry="3" style="stroke:#000000;stroke-width:1;"/><text fill="#000000" font-family="sans-serif" font-size="14" lengthAdjust="spacing" textLength="31.0762" x="838.39" y="249.1351">nom</text><ellipse cx="829.39" cy="262.0853" fill="#000000" rx="3" ry="3" style="stroke:#000000;stroke-width:1;"/><text fill="#000000" font-family="sans-serif" font-size="14" lengthAdjust="spacing" textLength="37.1533" x="838.39" y="265.432">stock</text><ellipse cx="829.39" cy="278.3822" fill="#000000" rx="3" ry="3" style="stroke:#000000;stroke-width:1;"/><text fill="#000000" font-family="sans-serif" font-size="14" lengthAdjust="spacing" textLength="56.6904" x="838.39" y="281.7289">emprise</text><line style="stroke:#181818;stroke-width:0.5;" x1="819.39" x2="965.7308" y1="289.0306" y2="289.0306"/></g><!--class QuantiteMatierePremiere--><g id="elem_QuantiteMatierePremiere"><rect codeLine="20" fill="#F1F1F1" height="80.5938" id="QuantiteMatierePremiere" rx="2.5" ry="2.5" style="stroke:#181818;stroke-width:0.5;" width="209.167" x="1164.97" y="7"/><ellipse cx="1179.97" cy="23" fill="#0000FF" rx="11" ry="11" style="stroke:#181818;stroke-width:1;"/><path d="M1176.095,29.25 L1178.6263,16.75 L1180.8138,16.75 L1183.345,29.25 L1181.4075,29.25 L1180.9231,26.4688 L1178.5169,26.4688 L1178.0325,29.25 L1176.095,29.25 Z M1180.6419,24.8281 L1179.97,20.9219 Q1179.9075,20.5625 1179.845,20.2188 Q1179.7825,19.8594 1179.72,19.5156 Q1179.6575,19.8594 1179.595,20.2188 Q1179.5325,20.5625 1179.47,20.9219 L1178.7981,24.8281 L1180.6419,24.8281 Z " fill="#000000"/><text fill="#000000" font-family="sans-serif" font-size="14" lengthAdjust="spacing" textLength="177.167" x="1193.97" y="27.8467">QuantiteMatierePremiere</text><line style="stroke:#181818;stroke-width:0.5;" x1="1165.97" x2="1373.137" y1="39" y2="39"/><ellipse cx="1175.97" cy="52.6484" fill="#000000" rx="3" ry="3" style="stroke:#000000;stroke-width:1;"/><text fill="#000000" font-family="sans-serif" font-size="14" lengthAdjust="spacing" textLength="58.6934" x="1184.97" y="55.9951">quantite</text><ellipse cx="1175.97" cy="68.9453" fill="#000000" rx="3" ry="3" style="stroke:#000000;stroke-width:1;"/><text fill="#000000" font-family="sans-serif" font-size="14" lengthAdjust="spacing" textLength="125.3438" x="1184.97" y="72.292">matiere_premiere</text><line style="stroke:#181818;stroke-width:0.5;" x1="1165.97" x2="1373.137" y1="79.5938" y2="79.5938"/></g><!--class UtilisationMatierePremiere--><g id="elem_UtilisationMatierePremiere"><rect codeLine="25" fill="#F1F1F1" height="48" id="UtilisationMatierePremiere" rx="2.5" ry="2.5" style="stroke:#181818;stroke-width:0.5;" width="218.4365" x="1009.56" y="224.59"/><ellipse cx="1024.56" cy="240.59" fill="#008000" rx="11" ry="11" style="stroke:#181818;stroke-width:1;"/><path d="M1020.7788,247.09 L1020.7788,234.59 L1022.7788,234.59 L1024.31,240.7306 L1025.8413,234.59 L1027.8413,234.59 L1027.8413,247.09 L1026.0756,247.09 L1026.0756,244.59 Q1026.0756,243.7306 1026.0913,242.8712 Q1026.1069,241.9962 1026.1538,241.1369 Q1026.2163,240.2775 1026.2631,239.4181 Q1026.3256,238.5431 1026.3881,237.6681 L1024.9506,243.34 L1023.6694,243.34 L1022.2319,237.6681 Q1022.2944,238.5431 1022.3413,239.4181 Q1022.4038,240.2775 1022.4506,241.1369 Q1022.5131,241.9962 1022.5288,242.8712 Q1022.5444,243.7306 1022.5444,244.59 L1022.5444,247.09 L1020.7788,247.09 Z " fill="#000000"/><text fill="#000000" font-family="sans-serif" font-size="14" lengthAdjust="spacing" textLength="186.4365" x="1038.56" y="245.4367">UtilisationMatierePremiere</text><line style="stroke:#181818;stroke-width:0.5;" x1="1010.56" x2="1226.9965" y1="256.59" y2="256.59"/><line style="stroke:#181818;stroke-width:0.5;" x1="1010.56" x2="1226.9965" y1="264.59" y2="264.59"/></g><!--class ApprovisionnementMatierePremiere--><g id="elem_ApprovisionnementMatierePremiere"><rect codeLine="28" fill="#F1F1F1" height="96.8906" id="ApprovisionnementMatierePremiere" rx="2.5" ry="2.5" style="stroke:#181818;stroke-width:0.5;" width="284.9092" x="1278.56" y="200.59"/><ellipse cx="1293.56" cy="216.59" fill="#008000" rx="11" ry="11" style="stroke:#181818;stroke-width:1;"/><path d="M1289.7788,223.09 L1289.7788,210.59 L1291.7788,210.59 L1293.31,216.7306 L1294.8413,210.59 L1296.8413,210.59 L1296.8413,223.09 L1295.0756,223.09 L1295.0756,220.59 Q1295.0756,219.7306 1295.0913,218.8712 Q1295.1069,217.9962 1295.1538,217.1369 Q1295.2163,216.2775 1295.2631,215.4181 Q1295.3256,214.5431 1295.3881,213.6681 L1293.9506,219.34 L1292.6694,219.34 L1291.2319,213.6681 Q1291.2944,214.5431 1291.3413,215.4181 Q1291.4038,216.2775 1291.4506,217.1369 Q1291.5131,217.9962 1291.5288,218.8712 Q1291.5444,219.7306 1291.5444,220.59 L1291.5444,223.09 L1289.7788,223.09 Z " fill="#000000"/><text fill="#000000" font-family="sans-serif" font-size="14" lengthAdjust="spacing" textLength="252.9092" x="1307.56" y="221.4367">ApprovisionnementMatierePremiere</text><line style="stroke:#181818;stroke-width:0.5;" x1="1279.56" x2="1562.4692" y1="232.59" y2="232.59"/><ellipse cx="1289.56" cy="246.2384" fill="#000000" rx="3" ry="3" style="stroke:#000000;stroke-width:1;"/><text fill="#000000" font-family="sans-serif" font-size="14" lengthAdjust="spacing" textLength="79.2012" x="1298.56" y="249.5851">localisation</text><ellipse cx="1289.56" cy="262.5353" fill="#000000" rx="3" ry="3" style="stroke:#000000;stroke-width:1;"/><text fill="#000000" font-family="sans-serif" font-size="14" lengthAdjust="spacing" textLength="87.7803" x="1298.56" y="265.882">prix_unitaire</text><ellipse cx="1289.56" cy="278.8322" fill="#000000" rx="3" ry="3" style="stroke:#000000;stroke-width:1;"/><text fill="#000000" font-family="sans-serif" font-size="14" lengthAdjust="spacing" textLength="41.1523" x="1298.56" y="282.1789">delais</text><line style="stroke:#181818;stroke-width:0.5;" x1="1279.56" x2="1562.4692" y1="289.4806" y2="289.4806"/></g><!--class Machine--><g id="elem_Machine"><rect codeLine="34" fill="#F1F1F1" height="194.6719" id="Machine" rx="2.5" ry="2.5" style="stroke:#181818;stroke-width:0.5;" width="155.3428" x="1988.06" y="151.59"/><ellipse cx="2032.1922" cy="167.59" fill="#008000" rx="11" ry="11" style="stroke:#181818;stroke-width:1;"/><path d="M2028.411,174.09 L2028.411,161.59 L2030.411,161.59 L2031.9422,167.7306 L2033.4735,161.59 L2035.4735,161.59 L2035.4735,174.09 L2033.7079,174.09 L2033.7079,171.59 Q2033.7079,170.7306 2033.7235,169.8712 Q2033.7391,168.9962 2033.786,168.1369 Q2033.8485,167.2775 2033.8954,166.4181 Q2033.9579,165.5431 2034.0204,164.6681 L2032.5829,170.34 L2031.3016,170.34 L2029.8641,164.6681 Q2029.9266,165.5431 2029.9735,166.4181 Q2030.036,167.2775 2030.0829,168.1369 Q2030.1454,168.9962 2030.161,169.8712 Q2030.1766,170.7306 2030.1766,171.59 L2030.1766,174.09 L2028.411,174.09 Z " fill="#000000"/><text fill="#000000" font-family="sans-serif" font-size="14" lengthAdjust="spacing" textLength="58.6045" x="2052.6661" y="172.4367">Machine</text><line style="stroke:#181818;stroke-width:0.5;" x1="1989.06" x2="2142.4028" y1="183.59" y2="183.59"/><ellipse cx="1999.06" cy="197.2384" fill="#000000" rx="3" ry="3" style="stroke:#000000;stroke-width:1;"/><text fill="#000000" font-family="sans-serif" font-size="14" lengthAdjust="spacing" textLength="31.0762" x="2008.06" y="200.5851">nom</text><ellipse cx="1999.06" cy="213.5353" fill="#000000" rx="3" ry="3" style="stroke:#000000;stroke-width:1;"/><text fill="#000000" font-family="sans-serif" font-size="14" lengthAdjust="spacing" textLength="73.0352" x="2008.06" y="216.882">prix_achat</text><ellipse cx="1999.06" cy="229.8322" fill="#000000" rx="3" ry="3" style="stroke:#000000;stroke-width:1;"/><text fill="#000000" font-family="sans-serif" font-size="14" lengthAdjust="spacing" textLength="129.3428" x="2008.06" y="233.1789">cout_maintenance</text><ellipse cx="1999.06" cy="246.1291" fill="#000000" rx="3" ry="3" style="stroke:#000000;stroke-width:1;"/><text fill="#000000" font-family="sans-serif" font-size="14" lengthAdjust="spacing" textLength="76.4258" x="2008.06" y="249.4757">operateurs</text><ellipse cx="1999.06" cy="262.4259" fill="#000000" rx="3" ry="3" style="stroke:#000000;stroke-width:1;"/><text fill="#000000" font-family="sans-serif" font-size="14" lengthAdjust="spacing" textLength="35.7656" x="2008.06" y="265.7726">debit</text><ellipse cx="1999.06" cy="278.7228" fill="#000000" rx="3" ry="3" style="stroke:#000000;stroke-width:1;"/><text fill="#000000" font-family="sans-serif" font-size="14" lengthAdjust="spacing" textLength="51.7412" x="2008.06" y="282.0695">surface</text><ellipse cx="1999.06" cy="295.0197" fill="#000000" rx="3" ry="3" style="stroke:#000000;stroke-width:1;"/><text fill="#000000" font-family="sans-serif" font-size="14" lengthAdjust="spacing" textLength="96.0107" x="2008.06" y="298.3664">debit_energie</text><ellipse cx="1999.06" cy="311.3166" fill="#000000" rx="3" ry="3" style="stroke:#000000;stroke-width:1;"/><text fill="#000000" font-family="sans-serif" font-size="14" lengthAdjust="spacing" textLength="106.9482" x="2008.06" y="314.6632">taux_utilisation</text><ellipse cx="1999.06" cy="327.6134" fill="#000000" rx="3" ry="3" style="stroke:#000000;stroke-width:1;"/><text fill="#000000" font-family="sans-serif" font-size="14" lengthAdjust="spacing" textLength="32.6211" x="2008.06" y="330.9601">local</text><line style="stroke:#181818;stroke-width:0.5;" x1="1989.06" x2="2142.4028" y1="338.2619" y2="338.2619"/></g><!--class DebitEnergie--><g id="elem_DebitEnergie"><rect codeLine="46" fill="#F1F1F1" height="80.5938" id="DebitEnergie" rx="2.5" ry="2.5" style="stroke:#181818;stroke-width:0.5;" width="123.1367" x="321.06" y="208.59"/><ellipse cx="336.06" cy="224.59" fill="#008000" rx="11" ry="11" style="stroke:#181818;stroke-width:1;"/><path d="M332.2788,231.09 L332.2788,218.59 L334.2788,218.59 L335.81,224.7306 L337.3413,218.59 L339.3413,218.59 L339.3413,231.09 L337.5756,231.09 L337.5756,228.59 Q337.5756,227.7306 337.5913,226.8712 Q337.6069,225.9962 337.6538,225.1369 Q337.7163,224.2775 337.7631,223.4181 Q337.8256,222.5431 337.8881,221.6681 L336.4506,227.34 L335.1694,227.34 L333.7319,221.6681 Q333.7944,222.5431 333.8413,223.4181 Q333.9038,224.2775 333.9506,225.1369 Q334.0131,225.9962 334.0288,226.8712 Q334.0444,227.7306 334.0444,228.59 L334.0444,231.09 L332.2788,231.09 Z " fill="#000000"/><text fill="#000000" font-family="sans-serif" font-size="14" lengthAdjust="spacing" textLength="91.1367" x="350.06" y="229.4367">DebitEnergie</text><line style="stroke:#181818;stroke-width:0.5;" x1="322.06" x2="443.1967" y1="240.59" y2="240.59"/><ellipse cx="332.06" cy="254.2384" fill="#000000" rx="3" ry="3" style="stroke:#000000;stroke-width:1;"/><text fill="#000000" font-family="sans-serif" font-size="14" lengthAdjust="spacing" textLength="35.7656" x="341.06" y="257.5851">debit</text><ellipse cx="332.06" cy="270.5353" fill="#000000" rx="3" ry="3" style="stroke:#000000;stroke-width:1;"/><text fill="#000000" font-family="sans-serif" font-size="14" lengthAdjust="spacing" textLength="53.2451" x="341.06" y="273.882">energie</text><line style="stroke:#181818;stroke-width:0.5;" x1="322.06" x2="443.1967" y1="281.1838" y2="281.1838"/></g><!--class Energie--><g id="elem_Energie"><rect codeLine="51" fill="#F1F1F1" height="96.8906" id="Energie" rx="2.5" ry="2.5" style="stroke:#181818;stroke-width:0.5;" width="105.2012" x="165.06" y="200.59"/><ellipse cx="188.9356" cy="216.59" fill="#008000" rx="11" ry="11" style="stroke:#181818;stroke-width:1;"/><path d="M185.1544,223.09 L185.1544,210.59 L187.1544,210.59 L188.6856,216.7306 L190.2169,210.59 L192.2169,210.59 L192.2169,223.09 L190.4513,223.09 L190.4513,220.59 Q190.4513,219.7306 190.4669,218.8712 Q190.4825,217.9962 190.5294,217.1369 Q190.5919,216.2775 190.6388,215.4181 Q190.7013,214.5431 190.7638,213.6681 L189.3263,219.34 L188.045,219.34 L186.6075,213.6681 Q186.67,214.5431 186.7169,215.4181 Q186.7794,216.2775 186.8263,217.1369 Q186.8888,217.9962 186.9044,218.8712 Q186.92,219.7306 186.92,220.59 L186.92,223.09 L185.1544,223.09 Z " fill="#000000"/><text fill="#000000" font-family="sans-serif" font-size="14" lengthAdjust="spacing" textLength="53.4775" x="204.908" y="221.4367">Energie</text><line style="stroke:#181818;stroke-width:0.5;" x1="166.06" x2="269.2612" y1="232.59" y2="232.59"/><ellipse cx="176.06" cy="246.2384" fill="#000000" rx="3" ry="3" style="stroke:#000000;stroke-width:1;"/><text fill="#000000" font-family="sans-serif" font-size="14" lengthAdjust="spacing" textLength="31.0762" x="185.06" y="249.5851">nom</text><ellipse cx="176.06" cy="262.5353" fill="#000000" rx="3" ry="3" style="stroke:#000000;stroke-width:1;"/><text fill="#000000" font-family="sans-serif" font-size="14" lengthAdjust="spacing" textLength="26.8174" x="185.06" y="265.882">prix</text><ellipse cx="176.06" cy="278.8322" fill="#000000" rx="3" ry="3" style="stroke:#000000;stroke-width:1;"/><text fill="#000000" font-family="sans-serif" font-size="14" lengthAdjust="spacing" textLength="79.2012" x="185.06" y="282.1789">localisation</text><line style="stroke:#181818;stroke-width:0.5;" x1="166.06" x2="269.2612" y1="289.4806" y2="289.4806"/></g><!--class Produit--><g id="elem_Produit"><rect codeLine="57" fill="#F1F1F1" height="129.4844" id="Produit" rx="2.5" ry="2.5" style="stroke:#181818;stroke-width:0.5;" width="124.1914" x="651.56" y="184.09"/><ellipse cx="685.5901" cy="200.09" fill="#008000" rx="11" ry="11" style="stroke:#181818;stroke-width:1;"/><path d="M681.8088,206.59 L681.8088,194.09 L683.8088,194.09 L685.3401,200.2306 L686.8713,194.09 L688.8713,194.09 L688.8713,206.59 L687.1057,206.59 L687.1057,204.09 Q687.1057,203.2306 687.1213,202.3712 Q687.137,201.4962 687.1838,200.6369 Q687.2463,199.7775 687.2932,198.9181 Q687.3557,198.0431 687.4182,197.1681 L685.9807,202.84 L684.6995,202.84 L683.262,197.1681 Q683.3245,198.0431 683.3713,198.9181 Q683.4338,199.7775 683.4807,200.6369 Q683.5432,201.4962 683.5588,202.3712 Q683.5745,203.2306 683.5745,204.09 L683.5745,206.59 L681.8088,206.59 Z " fill="#000000"/><text fill="#000000" font-family="sans-serif" font-size="14" lengthAdjust="spacing" textLength="49.9023" x="703.819" y="204.9367">Produit</text><line style="stroke:#181818;stroke-width:0.5;" x1="652.56" x2="774.7514" y1="216.09" y2="216.09"/><ellipse cx="662.56" cy="229.7384" fill="#000000" rx="3" ry="3" style="stroke:#000000;stroke-width:1;"/><text fill="#000000" font-family="sans-serif" font-size="14" lengthAdjust="spacing" textLength="31.0762" x="671.56" y="233.0851">nom</text><ellipse cx="662.56" cy="246.0353" fill="#000000" rx="3" ry="3" style="stroke:#000000;stroke-width:1;"/><text fill="#000000" font-family="sans-serif" font-size="14" lengthAdjust="spacing" textLength="98.1914" x="671.56" y="249.382">prix_de_vente</text><ellipse cx="662.56" cy="262.3322" fill="#000000" rx="3" ry="3" style="stroke:#000000;stroke-width:1;"/><text fill="#000000" font-family="sans-serif" font-size="14" lengthAdjust="spacing" textLength="58.6934" x="671.56" y="265.6789">quantite</text><ellipse cx="662.56" cy="278.6291" fill="#000000" rx="3" ry="3" style="stroke:#000000;stroke-width:1;"/><text fill="#000000" font-family="sans-serif" font-size="14" lengthAdjust="spacing" textLength="56.6904" x="671.56" y="281.9757">emprise</text><ellipse cx="662.56" cy="294.9259" fill="#000000" rx="3" ry="3" style="stroke:#000000;stroke-width:1;"/><text fill="#000000" font-family="sans-serif" font-size="14" lengthAdjust="spacing" textLength="32.6211" x="671.56" y="298.2726">local</text><line style="stroke:#181818;stroke-width:0.5;" x1="652.56" x2="774.7514" y1="305.5744" y2="305.5744"/></g><!--class Fabrication--><g id="elem_Fabrication"><rect codeLine="65" fill="#F1F1F1" height="113.1875" id="Fabrication" rx="2.5" ry="2.5" style="stroke:#181818;stroke-width:0.5;" width="234.3594" x="2194.56" y="192.09"/><ellipse cx="2268.3608" cy="208.09" fill="#008000" rx="11" ry="11" style="stroke:#181818;stroke-width:1;"/><path d="M2264.5795,214.59 L2264.5795,202.09 L2266.5795,202.09 L2268.1108,208.2306 L2269.642,202.09 L2271.642,202.09 L2271.642,214.59 L2269.8764,214.59 L2269.8764,212.09 Q2269.8764,211.2306 2269.892,210.3712 Q2269.9077,209.4962 2269.9545,208.6369 Q2270.017,207.7775 2270.0639,206.9181 Q2270.1264,206.0431 2270.1889,205.1681 L2268.7514,210.84 L2267.4702,210.84 L2266.0327,205.1681 Q2266.0952,206.0431 2266.142,206.9181 Q2266.2045,207.7775 2266.2514,208.6369 Q2266.3139,209.4962 2266.3295,210.3712 Q2266.3452,211.2306 2266.3452,212.09 L2266.3452,214.59 L2264.5795,214.59 Z " fill="#000000"/><text fill="#000000" font-family="sans-serif" font-size="14" lengthAdjust="spacing" textLength="78.2578" x="2288.8608" y="212.9367">Fabrication</text><line style="stroke:#181818;stroke-width:0.5;" x1="2195.56" x2="2427.9194" y1="224.09" y2="224.09"/><ellipse cx="2205.56" cy="237.7384" fill="#000000" rx="3" ry="3" style="stroke:#000000;stroke-width:1;"/><text fill="#000000" font-family="sans-serif" font-size="14" lengthAdjust="spacing" textLength="50.3467" x="2214.56" y="241.0851">produit</text><ellipse cx="2205.56" cy="254.0353" fill="#000000" rx="3" ry="3" style="stroke:#000000;stroke-width:1;"/><text fill="#000000" font-family="sans-serif" font-size="14" lengthAdjust="spacing" textLength="208.3594" x="2214.56" y="257.382">utilisations_matiere_premiere</text><ellipse cx="2205.56" cy="270.3322" fill="#000000" rx="3" ry="3" style="stroke:#000000;stroke-width:1;"/><text fill="#000000" font-family="sans-serif" font-size="14" lengthAdjust="spacing" textLength="67.457" x="2214.56" y="273.6789">machines</text><ellipse cx="2205.56" cy="286.6291" fill="#000000" rx="3" ry="3" style="stroke:#000000;stroke-width:1;"/><text fill="#000000" font-family="sans-serif" font-size="14" lengthAdjust="spacing" textLength="151.3887" x="2214.56" y="289.9757">ressources_humaines</text><line style="stroke:#181818;stroke-width:0.5;" x1="2195.56" x2="2427.9194" y1="297.2775" y2="297.2775"/></g><!--class Metier--><g id="elem_Metier"><rect codeLine="72" fill="#F1F1F1" height="80.5938" id="Metier" rx="2.5" ry="2.5" style="stroke:#181818;stroke-width:0.5;" width="121.5186" x="1605.8" y="208.29"/><ellipse cx="1641.0852" cy="224.29" fill="#008000" rx="11" ry="11" style="stroke:#181818;stroke-width:1;"/><path d="M1637.3039,230.79 L1637.3039,218.29 L1639.3039,218.29 L1640.8352,224.4306 L1642.3664,218.29 L1644.3664,218.29 L1644.3664,230.79 L1642.6008,230.79 L1642.6008,228.29 Q1642.6008,227.4306 1642.6164,226.5712 Q1642.632,225.6962 1642.6789,224.8369 Q1642.7414,223.9775 1642.7883,223.1181 Q1642.8508,222.2431 1642.9133,221.3681 L1641.4758,227.04 L1640.1945,227.04 L1638.757,221.3681 Q1638.8195,222.2431 1638.8664,223.1181 Q1638.9289,223.9775 1638.9758,224.8369 Q1639.0383,225.6962 1639.0539,226.5712 Q1639.0695,227.4306 1639.0695,228.29 L1639.0695,230.79 L1637.3039,230.79 Z " fill="#000000"/><text fill="#000000" font-family="sans-serif" font-size="14" lengthAdjust="spacing" textLength="44.4404" x="1659.593" y="229.1367">Metier</text><line style="stroke:#181818;stroke-width:0.5;" x1="1606.8" x2="1726.3186" y1="240.29" y2="240.29"/><ellipse cx="1616.8" cy="253.9384" fill="#000000" rx="3" ry="3" style="stroke:#000000;stroke-width:1;"/><text fill="#000000" font-family="sans-serif" font-size="14" lengthAdjust="spacing" textLength="31.0762" x="1625.8" y="257.2851">nom</text><ellipse cx="1616.8" cy="270.2353" fill="#000000" rx="3" ry="3" style="stroke:#000000;stroke-width:1;"/><text fill="#000000" font-family="sans-serif" font-size="14" lengthAdjust="spacing" textLength="95.5186" x="1625.8" y="273.582">remuneration</text><line style="stroke:#181818;stroke-width:0.5;" x1="1606.8" x2="1726.3186" y1="280.8837" y2="280.8837"/></g><!--class RessourceHumaine--><g id="elem_RessourceHumaine"><rect codeLine="77" fill="#F1F1F1" height="80.5938" id="RessourceHumaine" rx="2.5" ry="2.5" style="stroke:#181818;stroke-width:0.5;" width="167.4268" x="1770.06" y="208.59"/><ellipse cx="1785.06" cy="224.59" fill="#008000" rx="11" ry="11" style="stroke:#181818;stroke-width:1;"/><path d="M1781.2788,231.09 L1781.2788,218.59 L1783.2788,218.59 L1784.81,224.7306 L1786.3413,218.59 L1788.3413,218.59 L1788.3413,231.09 L1786.5756,231.09 L1786.5756,228.59 Q1786.5756,227.7306 1786.5913,226.8712 Q1786.6069,225.9962 1786.6538,225.1369 Q1786.7163,224.2775 1786.7631,223.4181 Q1786.8256,222.5431 1786.8881,221.6681 L1785.4506,227.34 L1784.1694,227.34 L1782.7319,221.6681 Q1782.7944,222.5431 1782.8413,223.4181 Q1782.9038,224.2775 1782.9506,225.1369 Q1783.0131,225.9962 1783.0288,226.8712 Q1783.0444,227.7306 1783.0444,228.59 L1783.0444,231.09 L1781.2788,231.09 Z " fill="#000000"/><text fill="#000000" font-family="sans-serif" font-size="14" lengthAdjust="spacing" textLength="135.4268" x="1799.06" y="229.4367">RessourceHumaine</text><line style="stroke:#181818;stroke-width:0.5;" x1="1771.06" x2="1936.4868" y1="240.59" y2="240.59"/><ellipse cx="1781.06" cy="254.2384" fill="#000000" rx="3" ry="3" style="stroke:#000000;stroke-width:1;"/><text fill="#000000" font-family="sans-serif" font-size="14" lengthAdjust="spacing" textLength="45.999" x="1790.06" y="257.5851">metier</text><ellipse cx="1781.06" cy="270.5353" fill="#000000" rx="3" ry="3" style="stroke:#000000;stroke-width:1;"/><text fill="#000000" font-family="sans-serif" font-size="14" lengthAdjust="spacing" textLength="58.6934" x="1790.06" y="273.882">quantite</text><line style="stroke:#181818;stroke-width:0.5;" x1="1771.06" x2="1936.4868" y1="281.1838" y2="281.1838"/></g><!--reverse link QuantiteMatierePremiere to UtilisationMatierePremiere--><g id="link_QuantiteMatierePremiere_UtilisationMatierePremiere"><path codeLine="82" d="M1228.8501,102.0173 C1199.0301,141.3773 1164.85,186.49 1138.9,220.73 " fill="none" id="QuantiteMatierePremiere-backto-UtilisationMatierePremiere" style="stroke:#181818;stroke-width:1;"/><polygon fill="none" points="1239.72,87.67,1224.0677,98.3941,1233.6326,105.6406,1239.72,87.67" style="stroke:#181818;stroke-width:1;"/></g><!--reverse link QuantiteMatierePremiere to ApprovisionnementMatierePremiere--><g id="link_QuantiteMatierePremiere_ApprovisionnementMatierePremiere"><path codeLine="83" d="M1310.2595,102.0176 C1333.9795,133.3276 1356.47,163 1382.18,196.94 " fill="none" id="QuantiteMatierePremiere-backto-ApprovisionnementMatierePremiere" style="stroke:#181818;stroke-width:1;"/><polygon fill="none" points="1299.39,87.67,1305.477,105.6408,1315.0421,98.3944,1299.39,87.67" style="stroke:#181818;stroke-width:1;"/></g><!--link Localisation to Local--><g id="link_Localisation_Local"><path codeLine="84" d="M84.82,199.72 C99.96,170.1 123.81,134.82 157.06,117.59 C215.26,87.43 395.21,84.94 452.06,117.59 C465.44,125.28 463.96,133.2 469.56,147.59 C478.87,171.54 456.36,260.59 482.06,260.59 " fill="none" id="Localisation-to-Local" style="stroke:#181818;stroke-width:1;"/><polygon fill="#181818" points="494.06,260.59,488.06,256.59,482.06,260.59,488.06,264.59,494.06,260.59" style="stroke:#181818;stroke-width:1;"/></g><!--link Localisation to ApprovisionnementMatierePremiere--><g id="link_Localisation_ApprovisionnementMatierePremiere"><path codeLine="85" d="M84.82,199.72 C99.96,170.1 123.81,134.82 157.06,117.59 C210.28,90.02 1184.08,87.73 1236.06,117.59 C1249.44,125.28 1247.75,133.29 1253.56,147.59 C1270.25,188.74 1221.14,244.59 1265.56,244.59 " fill="none" id="Localisation-to-ApprovisionnementMatierePremiere" style="stroke:#181818;stroke-width:1;"/><polygon fill="#181818" points="1277.56,244.59,1271.56,240.59,1265.56,244.59,1271.56,248.59,1277.56,244.59" style="stroke:#181818;stroke-width:1;"/></g><!--link Localisation to Energie--><g id="link_Localisation_Energie"><path codeLine="86" d="M122.6,270.51 C136,274.06 138.37,276.59 152.06,276.59 " fill="none" id="Localisation-to-Energie" style="stroke:#181818;stroke-width:1;"/><polygon fill="#181818" points="164.06,276.59,158.06,272.59,152.06,276.59,158.06,280.59,164.06,276.59" style="stroke:#181818;stroke-width:1;"/></g><!--link MatierePremiere to ApprovisionnementMatierePremiere--><g id="link_MatierePremiere_ApprovisionnementMatierePremiere"><path codeLine="87" d="M918.52,199.82 C937.34,170.04 965.8,134.54 1002.06,117.59 C1096.27,73.55 1136.97,85.99 1236.06,117.59 C1285.27,133.29 1323.4995,159.6098 1357.8995,189.0998 " fill="none" id="MatierePremiere-to-ApprovisionnementMatierePremiere" style="stroke:#181818;stroke-width:1;"/><polygon fill="#181818" points="1367.01,196.91,1365.0581,189.9681,1357.8995,189.0998,1359.8514,196.0418,1367.01,196.91" style="stroke:#181818;stroke-width:1;"/></g><!--link MatierePremiere to UtilisationMatierePremiere--><g id="link_MatierePremiere_UtilisationMatierePremiere"><path codeLine="88" d="M967.15,248.59 C978.69,248.59 978.22,248.59 989.75,248.59 " fill="none" id="MatierePremiere-to-UtilisationMatierePremiere" style="stroke:#181818;stroke-width:1;"/><polygon fill="#181818" points="1001.75,248.59,995.75,244.59,989.75,248.59,995.75,252.59,1001.75,248.59" style="stroke:#181818;stroke-width:1;"/></g><!--link Local to Machine--><g id="link_Local_Machine"><path codeLine="89" d="M570.86,196.66 C586.91,167.68 611.28,134.15 644.06,117.59 C708.56,84.99 1882.38,81.59 1945.06,117.59 C1958.44,125.28 1957.52,133 1962.56,147.59 C1975.59,185.33 1935.13,325.59 1975.06,325.59 " fill="none" id="Local-to-Machine" style="stroke:#181818;stroke-width:1;"/><polygon fill="#181818" points="1987.06,325.59,1981.06,321.59,1975.06,325.59,1981.06,329.59,1987.06,325.59" style="stroke:#181818;stroke-width:1;"/></g><!--link Local to Produit--><g id="link_Local_Produit"><path codeLine="90" d="M607.96,283.98 C621.51,289.32 624.16,293.09 638.56,293.09 " fill="none" id="Local-to-Produit" style="stroke:#181818;stroke-width:1;"/><polygon fill="#181818" points="650.56,293.09,644.56,289.09,638.56,293.09,644.56,297.09,650.56,293.09" style="stroke:#181818;stroke-width:1;"/></g><!--link Energie to DebitEnergie--><g id="link_Energie_DebitEnergie"><path codeLine="91" d="M278.02,264.3 C291.72,266.8 294.32,268.59 308.06,268.59 " fill="none" id="Energie-to-DebitEnergie" style="stroke:#181818;stroke-width:1;"/><polygon fill="#181818" points="320.06,268.59,314.06,264.59,308.06,268.59,314.06,272.59,320.06,268.59" style="stroke:#181818;stroke-width:1;"/></g><!--link Produit to Fabrication--><g id="link_Produit_Fabrication"><path codeLine="92" d="M750.53,180.15 C767.58,155.73 790.27,130.97 818.06,117.59 C884.78,85.46 2086.84,80.71 2151.06,117.59 C2164.44,125.28 2162.52,133.38 2168.56,147.59 C2184.54,185.21 2140.68,236.09 2181.56,236.09 " fill="none" id="Produit-to-Fabrication" style="stroke:#181818;stroke-width:1;"/><polygon fill="#181818" points="2193.56,236.09,2187.56,232.09,2181.56,236.09,2187.56,240.09,2193.56,236.09" style="stroke:#181818;stroke-width:1;"/></g><!--link UtilisationMatierePremiere to Fabrication--><g id="link_UtilisationMatierePremiere_Fabrication"><path codeLine="93" d="M1140.02,220.87 C1166.71,188.91 1215.58,138.15 1271.06,117.59 C1316.9,100.6 2108.66,93.24 2151.06,117.59 C2164.44,125.28 2162.81,133.26 2168.56,147.59 C2186.33,191.91 2133.8,252.09 2181.56,252.09 " fill="none" id="UtilisationMatierePremiere-to-Fabrication" style="stroke:#181818;stroke-width:1;"/><polygon fill="none" points="2193.56,252.09,2187.56,248.09,2181.56,252.09,2187.56,256.09,2193.56,252.09" style="stroke:#181818;stroke-width:1;"/></g><!--link Machine to Fabrication--><g id="link_Machine_Fabrication"><path codeLine="94" d="M2150.99,265.21 C2165.14,266.95 2167.73,268.09 2181.56,268.09 " fill="none" id="Machine-to-Fabrication" style="stroke:#181818;stroke-width:1;"/><polygon fill="none" points="2193.56,268.09,2187.56,264.09,2181.56,268.09,2187.56,272.09,2193.56,268.09" style="stroke:#181818;stroke-width:1;"/></g><!--link Metier to RessourceHumaine--><g id="link_Metier_RessourceHumaine"><path codeLine="95" d="M1727.65,251.74 C1741.26,252.24 1743.65,252.59 1757.06,252.59 " fill="none" id="Metier-to-RessourceHumaine" style="stroke:#181818;stroke-width:1;"/><polygon fill="#181818" points="1769.06,252.59,1763.06,248.59,1757.06,252.59,1763.06,256.59,1769.06,252.59" style="stroke:#181818;stroke-width:1;"/></g><!--link RessourceHumaine to Fabrication--><g id="link_RessourceHumaine_Fabrication"><path codeLine="96" d="M1881.41,204.88 C1903.84,174.06 1938.44,135.26 1980.06,117.59 C2050.01,87.89 2085.15,79.74 2151.06,117.59 C2164.44,125.28 2163.2,133.11 2168.56,147.59 C2179.26,176.51 2150.72,284.09 2181.56,284.09 " fill="none" id="RessourceHumaine-to-Fabrication" style="stroke:#181818;stroke-width:1;"/><polygon fill="none" points="2193.56,284.09,2187.56,280.09,2181.56,284.09,2187.56,288.09,2193.56,284.09" style="stroke:#181818;stroke-width:1;"/></g><!--link RessourceHumaine to Machine--><g id="link_RessourceHumaine_Machine"><path codeLine="97" d="M1944.7,244.27 C1958.87,243.86 1961.36,243.59 1975.06,243.59 " fill="none" id="RessourceHumaine-to-Machine" style="stroke:#181818;stroke-width:1;"/><polygon fill="none" points="1987.06,243.59,1981.06,239.59,1975.06,243.59,1981.06,247.59,1987.06,243.59" style="stroke:#181818;stroke-width:1;"/></g><!--SRC=[ZLJBReCm4Bpp5HpRA5nwH56aI6tLGoEbbNf6ZhDDh89D_OWYjVttsXY3CSJaXB5tnklPsSKb4Y9zPHYLH21964rNg_Hkkpno07gVhjVfJvAc2yegyv7e0i8iQaukHVMG_2K9xYcYsDAxnFmBnJyHXfvYgu-0muv3PRvHCY4P_Z8Bg7GgmcDvKuXA8c6ARRFSbmfwikysrgmh6r_KBQ1d_934vJsVOeVQr3LdPo8qYa85LDxql52aHcT5YKI4DsaUe4H4-ABX4w5niHeI7OUa-SDCoQ92X4gWYEA6bTN0aGJ5XRrZJwHV8hTN00L-962je7HclJHTzdrkZmRpP27J2NOtEU8E6uLvxng9rZ7iE3ie8kULEK1nrlM1q17EMkE7FQCz9pZIBhMzsomzYKGnCbbZlAQ2ZV8SX62AOn35IPaQWLzgCE3eUpIjegQK0oNU7UkBvPocg1hwWGYQuMex_MPPf3FYkBdUI0O3ALlOwPBdWqA7CNEaC_3MS45KcFvDzuogFC5oNRe9l1sk6jLsUvjalzzwtUsxvj4dVW_ckMiprniwmFDodZlVHaPUneQGkB_TU0fHdUbRK-j4GfVg8El8aNr3igckcG9rwddZxXy0]--></g></svg>