<svg xmlns="http://www.w3.org/2000/svg" xmlns:xlink="http://www.w3.org/1999/xlink" contentStyleType="text/css" height="369px" preserveAspectRatio="none" style="width:2237px;height:369px;background:#FFFFFF;" version="1.1" viewBox="0 0 2237 369" width="2237px" zoomAndPan="magnify"><defs/><g><!--class Localisation--><g id="elem_Localisation"><rect codeLine="2" fill="#F1F1F1" height="96.8906" id="Localisation" rx="2.5" ry="2.5" style="stroke:#181818;stroke-width:0.5;" width="115.1113" x="7" y="216.44"/><ellipse cx="22" cy="232.44" fill="#008000" rx="11" ry="11" style="stroke:#181818;stroke-width:1;"/><path d="M18.2188,238.94 L18.2188,226.44 L20.2188,226.44 L21.75,232.5806 L23.2813,226.44 L25.2813,226.44 L25.2813,238.94 L23.5156,238.94 L23.5156,236.44 Q23.5156,235.5806 23.5313,234.7213 Q23.5469,233.8463 23.5938,232.9869 Q23.6563,232.1275 23.7031,231.2681 Q23.7656,230.3931 23.8281,229.5181 L22.3906,235.19 L21.1094,235.19 L19.6719,229.5181 Q19.7344,230.3931 19.7813,231.2681 Q19.8438,232.1275 19.8906,232.9869 Q19.9531,233.8463 19.9688,234.7213 Q19.9844,235.5806 19.9844,236.44 L19.9844,238.94 L18.2188,238.94 Z " fill="#000000"/><text fill="#000000" font-family="sans-serif" font-size="14" lengthAdjust="spacing" textLength="83.1113" x="36" y="237.2867">Localisation</text><line style="stroke:#181818;stroke-width:0.5;" x1="8" x2="121.1113" y1="248.44" y2="248.44"/><ellipse cx="18" cy="262.0884" fill="#000000" rx="3" ry="3" style="stroke:#000000;stroke-width:1;"/><text fill="#000000" font-family="sans-serif" font-size="14" lengthAdjust="spacing" textLength="31.0762" x="27" y="265.4351">nom</text><ellipse cx="18" cy="278.3853" fill="#000000" rx="3" ry="3" style="stroke:#000000;stroke-width:1;"/><text fill="#000000" font-family="sans-serif" font-size="14" lengthAdjust="spacing" textLength="38.2607" x="27" y="281.732">taxes</text><ellipse cx="18" cy="294.6822" fill="#000000" rx="3" ry="3" style="stroke:#000000;stroke-width:1;"/><text fill="#000000" font-family="sans-serif" font-size="14" lengthAdjust="spacing" textLength="56.3623" x="27" y="298.0289">prix_m2</text><line style="stroke:#181818;stroke-width:0.5;" x1="8" x2="121.1113" y1="305.3306" y2="305.3306"/></g><!--class Local--><g id="elem_Local"><rect codeLine="8" fill="#F1F1F1" height="96.8906" id="Local" rx="2.5" ry="2.5" style="stroke:#181818;stroke-width:0.5;" width="105.2012" x="831.06" y="216.89"/><ellipse cx="862.5615" cy="232.89" fill="#008000" rx="11" ry="11" style="stroke:#181818;stroke-width:1;"/><path d="M858.7802,239.39 L858.7802,226.89 L860.7802,226.89 L862.3115,233.0306 L863.8427,226.89 L865.8427,226.89 L865.8427,239.39 L864.0771,239.39 L864.0771,236.89 Q864.0771,236.0306 864.0927,235.1713 Q864.1083,234.2963 864.1552,233.4369 Q864.2177,232.5775 864.2646,231.7181 Q864.3271,230.8431 864.3896,229.9681 L862.9521,235.64 L861.6708,235.64 L860.2333,229.9681 Q860.2958,230.8431 860.3427,231.7181 Q860.4052,232.5775 860.4521,233.4369 Q860.5146,234.2963 860.5302,235.1713 Q860.5458,236.0306 860.5458,236.89 L860.5458,239.39 L858.7802,239.39 Z " fill="#000000"/><text fill="#000000" font-family="sans-serif" font-size="14" lengthAdjust="spacing" textLength="36.5313" x="880.2285" y="237.7367">Local</text><line style="stroke:#181818;stroke-width:0.5;" x1="832.06" x2="935.2612" y1="248.89" y2="248.89"/><ellipse cx="842.06" cy="262.5384" fill="#000000" rx="3" ry="3" style="stroke:#000000;stroke-width:1;"/><text fill="#000000" font-family="sans-serif" font-size="14" lengthAdjust="spacing" textLength="31.0762" x="851.06" y="265.8851">nom</text><ellipse cx="842.06" cy="278.8353" fill="#000000" rx="3" ry="3" style="stroke:#000000;stroke-width:1;"/><text fill="#000000" font-family="sans-serif" font-size="14" lengthAdjust="spacing" textLength="79.2012" x="851.06" y="282.182">localisation</text><ellipse cx="842.06" cy="295.1322" fill="#000000" rx="3" ry="3" style="stroke:#000000;stroke-width:1;"/><text fill="#000000" font-family="sans-serif" font-size="14" lengthAdjust="spacing" textLength="51.7412" x="851.06" y="298.4789">surface</text><line style="stroke:#181818;stroke-width:0.5;" x1="832.06" x2="935.2612" y1="305.7806" y2="305.7806"/></g><!--class MatierePremiere--><g id="elem_MatierePremiere"><rect codeLine="14" fill="#F1F1F1" height="96.8906" id="MatierePremiere" rx="2.5" ry="2.5" style="stroke:#181818;stroke-width:0.5;" width="148.3408" x="654.39" y="7"/><ellipse cx="669.39" cy="23" fill="#008000" rx="11" ry="11" style="stroke:#181818;stroke-width:1;"/><path d="M665.6088,29.5 L665.6088,17 L667.6088,17 L669.14,23.1406 L670.6713,17 L672.6713,17 L672.6713,29.5 L670.9056,29.5 L670.9056,27 Q670.9056,26.1406 670.9213,25.2813 Q670.9369,24.4063 670.9838,23.5469 Q671.0463,22.6875 671.0931,21.8281 Q671.1556,20.9531 671.2181,20.0781 L669.7806,25.75 L668.4994,25.75 L667.0619,20.0781 Q667.1244,20.9531 667.1713,21.8281 Q667.2338,22.6875 667.2806,23.5469 Q667.3431,24.4063 667.3588,25.2813 Q667.3744,26.1406 667.3744,27 L667.3744,29.5 L665.6088,29.5 Z " fill="#000000"/><text fill="#000000" font-family="sans-serif" font-size="14" lengthAdjust="spacing" textLength="116.3408" x="683.39" y="27.8467">MatierePremiere</text><line style="stroke:#181818;stroke-width:0.5;" x1="655.39" x2="801.7308" y1="39" y2="39"/><ellipse cx="665.39" cy="52.6484" fill="#000000" rx="3" ry="3" style="stroke:#000000;stroke-width:1;"/><text fill="#000000" font-family="sans-serif" font-size="14" lengthAdjust="spacing" textLength="31.0762" x="674.39" y="55.9951">nom</text><ellipse cx="665.39" cy="68.9453" fill="#000000" rx="3" ry="3" style="stroke:#000000;stroke-width:1;"/><text fill="#000000" font-family="sans-serif" font-size="14" lengthAdjust="spacing" textLength="37.1533" x="674.39" y="72.292">stock</text><ellipse cx="665.39" cy="85.2422" fill="#000000" rx="3" ry="3" style="stroke:#000000;stroke-width:1;"/><text fill="#000000" font-family="sans-serif" font-size="14" lengthAdjust="spacing" textLength="56.6904" x="674.39" y="88.5889">emprise</text><line style="stroke:#181818;stroke-width:0.5;" x1="655.39" x2="801.7308" y1="95.8906" y2="95.8906"/></g><!--class QuantiteMatierePremiere--><g id="elem_QuantiteMatierePremiere"><rect codeLine="20" fill="#F1F1F1" height="80.5938" id="QuantiteMatierePremiere" rx="2.5" ry="2.5" style="stroke:#181818;stroke-width:0.5;" width="209.167" x="846.06" y="15.44"/><ellipse cx="861.06" cy="31.44" fill="#0000FF" rx="11" ry="11" style="stroke:#181818;stroke-width:1;"/><path d="M857.185,37.69 L859.7163,25.19 L861.9038,25.19 L864.435,37.69 L862.4975,37.69 L862.0131,34.9088 L859.6069,34.9088 L859.1225,37.69 L857.185,37.69 Z M861.7319,33.2681 L861.06,29.3619 Q860.9975,29.0025 860.935,28.6587 Q860.8725,28.2994 860.81,27.9556 Q860.7475,28.2994 860.685,28.6587 Q860.6225,29.0025 860.56,29.3619 L859.8881,33.2681 L861.7319,33.2681 Z " fill="#000000"/><text fill="#000000" font-family="sans-serif" font-size="14" lengthAdjust="spacing" textLength="177.167" x="875.06" y="36.2867">QuantiteMatierePremiere</text><line style="stroke:#181818;stroke-width:0.5;" x1="847.06" x2="1054.227" y1="47.44" y2="47.44"/><ellipse cx="857.06" cy="61.0884" fill="#000000" rx="3" ry="3" style="stroke:#000000;stroke-width:1;"/><text fill="#000000" font-family="sans-serif" font-size="14" lengthAdjust="spacing" textLength="58.6934" x="866.06" y="64.4351">quantite</text><ellipse cx="857.06" cy="77.3853" fill="#000000" rx="3" ry="3" style="stroke:#000000;stroke-width:1;"/><text fill="#000000" font-family="sans-serif" font-size="14" lengthAdjust="spacing" textLength="125.3438" x="866.06" y="80.732">matiere_premiere</text><line style="stroke:#181818;stroke-width:0.5;" x1="847.06" x2="1054.227" y1="88.0338" y2="88.0338"/></g><!--class UtilisationMatierePremiere--><g id="elem_UtilisationMatierePremiere"><rect codeLine="25" fill="#F1F1F1" height="48" id="UtilisationMatierePremiere" rx="2.5" ry="2.5" style="stroke:#181818;stroke-width:0.5;" width="218.4365" x="1154.34" y="240.89"/><ellipse cx="1169.34" cy="256.89" fill="#008000" rx="11" ry="11" style="stroke:#181818;stroke-width:1;"/><path d="M1165.5588,263.39 L1165.5588,250.89 L1167.5588,250.89 L1169.09,257.0306 L1170.6213,250.89 L1172.6213,250.89 L1172.6213,263.39 L1170.8556,263.39 L1170.8556,260.89 Q1170.8556,260.0306 1170.8713,259.1713 Q1170.8869,258.2963 1170.9338,257.4369 Q1170.9963,256.5775 1171.0431,255.7181 Q1171.1056,254.8431 1171.1681,253.9681 L1169.7306,259.64 L1168.4494,259.64 L1167.0119,253.9681 Q1167.0744,254.8431 1167.1213,255.7181 Q1167.1838,256.5775 1167.2306,257.4369 Q1167.2931,258.2963 1167.3088,259.1713 Q1167.3244,260.0306 1167.3244,260.89 L1167.3244,263.39 L1165.5588,263.39 Z " fill="#000000"/><text fill="#000000" font-family="sans-serif" font-size="14" lengthAdjust="spacing" textLength="186.4365" x="1183.34" y="261.7367">UtilisationMatierePremiere</text><line style="stroke:#181818;stroke-width:0.5;" x1="1155.34" x2="1371.7765" y1="272.89" y2="272.89"/><line style="stroke:#181818;stroke-width:0.5;" x1="1155.34" x2="1371.7765" y1="280.89" y2="280.89"/></g><!--class ApprovisionnementMatierePremiere--><g id="elem_ApprovisionnementMatierePremiere"><rect codeLine="28" fill="#F1F1F1" height="96.8906" id="ApprovisionnementMatierePremiere" rx="2.5" ry="2.5" style="stroke:#181818;stroke-width:0.5;" width="284.9092" x="495.56" y="216.89"/><ellipse cx="510.56" cy="232.89" fill="#008000" rx="11" ry="11" style="stroke:#181818;stroke-width:1;"/><path d="M506.7788,239.39 L506.7788,226.89 L508.7788,226.89 L510.31,233.0306 L511.8413,226.89 L513.8413,226.89 L513.8413,239.39 L512.0756,239.39 L512.0756,236.89 Q512.0756,236.0306 512.0913,235.1713 Q512.1069,234.2963 512.1538,233.4369 Q512.2163,232.5775 512.2631,231.7181 Q512.3256,230.8431 512.3881,229.9681 L510.9506,235.64 L509.6694,235.64 L508.2319,229.9681 Q508.2944,230.8431 508.3413,231.7181 Q508.4038,232.5775 508.4506,233.4369 Q508.5131,234.2963 508.5288,235.1713 Q508.5444,236.0306 508.5444,236.89 L508.5444,239.39 L506.7788,239.39 Z " fill="#000000"/><text fill="#000000" font-family="sans-serif" font-size="14" lengthAdjust="spacing" textLength="252.9092" x="524.56" y="237.7367">ApprovisionnementMatierePremiere</text><line style="stroke:#181818;stroke-width:0.5;" x1="496.56" x2="779.4692" y1="248.89" y2="248.89"/><ellipse cx="506.56" cy="262.5384" fill="#000000" rx="3" ry="3" style="stroke:#000000;stroke-width:1;"/><text fill="#000000" font-family="sans-serif" font-size="14" lengthAdjust="spacing" textLength="79.2012" x="515.56" y="265.8851">localisation</text><ellipse cx="506.56" cy="278.8353" fill="#000000" rx="3" ry="3" style="stroke:#000000;stroke-width:1;"/><text fill="#000000" font-family="sans-serif" font-size="14" lengthAdjust="spacing" textLength="87.7803" x="515.56" y="282.182">prix_unitaire</text><ellipse cx="506.56" cy="295.1322" fill="#000000" rx="3" ry="3" style="stroke:#000000;stroke-width:1;"/><text fill="#000000" font-family="sans-serif" font-size="14" lengthAdjust="spacing" textLength="41.1523" x="515.56" y="298.4789">delais</text><line style="stroke:#181818;stroke-width:0.5;" x1="496.56" x2="779.4692" y1="305.7806" y2="305.7806"/></g><!--class Machine--><g id="elem_Machine"><rect codeLine="34" fill="#F1F1F1" height="194.6719" id="Machine" rx="2.5" ry="2.5" style="stroke:#181818;stroke-width:0.5;" width="155.3428" x="1790.06" y="167.89"/><ellipse cx="1834.1922" cy="183.89" fill="#008000" rx="11" ry="11" style="stroke:#181818;stroke-width:1;"/><path d="M1830.411,190.39 L1830.411,177.89 L1832.411,177.89 L1833.9422,184.0306 L1835.4735,177.89 L1837.4735,177.89 L1837.4735,190.39 L1835.7079,190.39 L1835.7079,187.89 Q1835.7079,187.0306 1835.7235,186.1713 Q1835.7391,185.2963 1835.786,184.4369 Q1835.8485,183.5775 1835.8954,182.7181 Q1835.9579,181.8431 1836.0204,180.9681 L1834.5829,186.64 L1833.3016,186.64 L1831.8641,180.9681 Q1831.9266,181.8431 1831.9735,182.7181 Q1832.036,183.5775 1832.0829,184.4369 Q1832.1454,185.2963 1832.161,186.1713 Q1832.1766,187.0306 1832.1766,187.89 L1832.1766,190.39 L1830.411,190.39 Z " fill="#000000"/><text fill="#000000" font-family="sans-serif" font-size="14" lengthAdjust="spacing" textLength="58.6045" x="1854.6661" y="188.7367">Machine</text><line style="stroke:#181818;stroke-width:0.5;" x1="1791.06" x2="1944.4028" y1="199.89" y2="199.89"/><ellipse cx="1801.06" cy="213.5384" fill="#000000" rx="3" ry="3" style="stroke:#000000;stroke-width:1;"/><text fill="#000000" font-family="sans-serif" font-size="14" lengthAdjust="spacing" textLength="31.0762" x="1810.06" y="216.8851">nom</text><ellipse cx="1801.06" cy="229.8353" fill="#000000" rx="3" ry="3" style="stroke:#000000;stroke-width:1;"/><text fill="#000000" font-family="sans-serif" font-size="14" lengthAdjust="spacing" textLength="73.0352" x="1810.06" y="233.182">prix_achat</text><ellipse cx="1801.06" cy="246.1322" fill="#000000" rx="3" ry="3" style="stroke:#000000;stroke-width:1;"/><text fill="#000000" font-family="sans-serif" font-size="14" lengthAdjust="spacing" textLength="129.3428" x="1810.06" y="249.4789">cout_maintenance</text><ellipse cx="1801.06" cy="262.4291" fill="#000000" rx="3" ry="3" style="stroke:#000000;stroke-width:1;"/><text fill="#000000" font-family="sans-serif" font-size="14" lengthAdjust="spacing" textLength="76.4258" x="1810.06" y="265.7757">operateurs</text><ellipse cx="1801.06" cy="278.7259" fill="#000000" rx="3" ry="3" style="stroke:#000000;stroke-width:1;"/><text fill="#000000" font-family="sans-serif" font-size="14" lengthAdjust="spacing" textLength="35.7656" x="1810.06" y="282.0726">debit</text><ellipse cx="1801.06" cy="295.0228" fill="#000000" rx="3" ry="3" style="stroke:#000000;stroke-width:1;"/><text fill="#000000" font-family="sans-serif" font-size="14" lengthAdjust="spacing" textLength="51.7412" x="1810.06" y="298.3695">surface</text><ellipse cx="1801.06" cy="311.3197" fill="#000000" rx="3" ry="3" style="stroke:#000000;stroke-width:1;"/><text fill="#000000" font-family="sans-serif" font-size="14" lengthAdjust="spacing" textLength="96.0107" x="1810.06" y="314.6664">debit_energie</text><ellipse cx="1801.06" cy="327.6166" fill="#000000" rx="3" ry="3" style="stroke:#000000;stroke-width:1;"/><text fill="#000000" font-family="sans-serif" font-size="14" lengthAdjust="spacing" textLength="106.9482" x="1810.06" y="330.9632">taux_utilisation</text><ellipse cx="1801.06" cy="343.9134" fill="#000000" rx="3" ry="3" style="stroke:#000000;stroke-width:1;"/><text fill="#000000" font-family="sans-serif" font-size="14" lengthAdjust="spacing" textLength="32.6211" x="1810.06" y="347.2601">local</text><line style="stroke:#181818;stroke-width:0.5;" x1="1791.06" x2="1944.4028" y1="354.5619" y2="354.5619"/></g><!--class DebitEnergie--><g id="elem_DebitEnergie"><rect codeLine="46" fill="#F1F1F1" height="80.5938" id="DebitEnergie" rx="2.5" ry="2.5" style="stroke:#181818;stroke-width:0.5;" width="123.1367" x="321.06" y="224.89"/><ellipse cx="336.06" cy="240.89" fill="#008000" rx="11" ry="11" style="stroke:#181818;stroke-width:1;"/><path d="M332.2788,247.39 L332.2788,234.89 L334.2788,234.89 L335.81,241.0306 L337.3413,234.89 L339.3413,234.89 L339.3413,247.39 L337.5756,247.39 L337.5756,244.89 Q337.5756,244.0306 337.5913,243.1713 Q337.6069,242.2963 337.6538,241.4369 Q337.7163,240.5775 337.7631,239.7181 Q337.8256,238.8431 337.8881,237.9681 L336.4506,243.64 L335.1694,243.64 L333.7319,237.9681 Q333.7944,238.8431 333.8413,239.7181 Q333.9038,240.5775 333.9506,241.4369 Q334.0131,242.2963 334.0288,243.1713 Q334.0444,244.0306 334.0444,244.89 L334.0444,247.39 L332.2788,247.39 Z " fill="#000000"/><text fill="#000000" font-family="sans-serif" font-size="14" lengthAdjust="spacing" textLength="91.1367" x="350.06" y="245.7367">DebitEnergie</text><line style="stroke:#181818;stroke-width:0.5;" x1="322.06" x2="443.1967" y1="256.89" y2="256.89"/><ellipse cx="332.06" cy="270.5384" fill="#000000" rx="3" ry="3" style="stroke:#000000;stroke-width:1;"/><text fill="#000000" font-family="sans-serif" font-size="14" lengthAdjust="spacing" textLength="35.7656" x="341.06" y="273.8851">debit</text><ellipse cx="332.06" cy="286.8353" fill="#000000" rx="3" ry="3" style="stroke:#000000;stroke-width:1;"/><text fill="#000000" font-family="sans-serif" font-size="14" lengthAdjust="spacing" textLength="53.2451" x="341.06" y="290.182">energie</text><line style="stroke:#181818;stroke-width:0.5;" x1="322.06" x2="443.1967" y1="297.4838" y2="297.4838"/></g><!--class Energie--><g id="elem_Energie"><rect codeLine="51" fill="#F1F1F1" height="96.8906" id="Energie" rx="2.5" ry="2.5" style="stroke:#181818;stroke-width:0.5;" width="105.2012" x="165.06" y="216.89"/><ellipse cx="188.9356" cy="232.89" fill="#008000" rx="11" ry="11" style="stroke:#181818;stroke-width:1;"/><path d="M185.1544,239.39 L185.1544,226.89 L187.1544,226.89 L188.6856,233.0306 L190.2169,226.89 L192.2169,226.89 L192.2169,239.39 L190.4513,239.39 L190.4513,236.89 Q190.4513,236.0306 190.4669,235.1713 Q190.4825,234.2963 190.5294,233.4369 Q190.5919,232.5775 190.6388,231.7181 Q190.7013,230.8431 190.7638,229.9681 L189.3263,235.64 L188.045,235.64 L186.6075,229.9681 Q186.67,230.8431 186.7169,231.7181 Q186.7794,232.5775 186.8263,233.4369 Q186.8888,234.2963 186.9044,235.1713 Q186.92,236.0306 186.92,236.89 L186.92,239.39 L185.1544,239.39 Z " fill="#000000"/><text fill="#000000" font-family="sans-serif" font-size="14" lengthAdjust="spacing" textLength="53.4775" x="204.908" y="237.7367">Energie</text><line style="stroke:#181818;stroke-width:0.5;" x1="166.06" x2="269.2612" y1="248.89" y2="248.89"/><ellipse cx="176.06" cy="262.5384" fill="#000000" rx="3" ry="3" style="stroke:#000000;stroke-width:1;"/><text fill="#000000" font-family="sans-serif" font-size="14" lengthAdjust="spacing" textLength="31.0762" x="185.06" y="265.8851">nom</text><ellipse cx="176.06" cy="278.8353" fill="#000000" rx="3" ry="3" style="stroke:#000000;stroke-width:1;"/><text fill="#000000" font-family="sans-serif" font-size="14" lengthAdjust="spacing" textLength="26.8174" x="185.06" y="282.182">prix</text><ellipse cx="176.06" cy="295.1322" fill="#000000" rx="3" ry="3" style="stroke:#000000;stroke-width:1;"/><text fill="#000000" font-family="sans-serif" font-size="14" lengthAdjust="spacing" textLength="79.2012" x="185.06" y="298.4789">localisation</text><line style="stroke:#181818;stroke-width:0.5;" x1="166.06" x2="269.2612" y1="305.7806" y2="305.7806"/></g><!--class Produit--><g id="elem_Produit"><rect codeLine="57" fill="#F1F1F1" height="129.4844" id="Produit" rx="2.5" ry="2.5" style="stroke:#181818;stroke-width:0.5;" width="124.1914" x="987.56" y="200.39"/><ellipse cx="1021.5901" cy="216.39" fill="#008000" rx="11" ry="11" style="stroke:#181818;stroke-width:1;"/><path d="M1017.8088,222.89 L1017.8088,210.39 L1019.8088,210.39 L1021.3401,216.5306 L1022.8713,210.39 L1024.8713,210.39 L1024.8713,222.89 L1023.1057,222.89 L1023.1057,220.39 Q1023.1057,219.5306 1023.1213,218.6713 Q1023.137,217.7963 1023.1838,216.9369 Q1023.2463,216.0775 1023.2932,215.2181 Q1023.3557,214.3431 1023.4182,213.4681 L1021.9807,219.14 L1020.6995,219.14 L1019.262,213.4681 Q1019.3245,214.3431 1019.3713,215.2181 Q1019.4338,216.0775 1019.4807,216.9369 Q1019.5432,217.7963 1019.5588,218.6713 Q1019.5745,219.5306 1019.5745,220.39 L1019.5745,222.89 L1017.8088,222.89 Z " fill="#000000"/><text fill="#000000" font-family="sans-serif" font-size="14" lengthAdjust="spacing" textLength="49.9023" x="1039.819" y="221.2367">Produit</text><line style="stroke:#181818;stroke-width:0.5;" x1="988.56" x2="1110.7514" y1="232.39" y2="232.39"/><ellipse cx="998.56" cy="246.0384" fill="#000000" rx="3" ry="3" style="stroke:#000000;stroke-width:1;"/><text fill="#000000" font-family="sans-serif" font-size="14" lengthAdjust="spacing" textLength="31.0762" x="1007.56" y="249.3851">nom</text><ellipse cx="998.56" cy="262.3353" fill="#000000" rx="3" ry="3" style="stroke:#000000;stroke-width:1;"/><text fill="#000000" font-family="sans-serif" font-size="14" lengthAdjust="spacing" textLength="98.1914" x="1007.56" y="265.682">prix_de_vente</text><ellipse cx="998.56" cy="278.6322" fill="#000000" rx="3" ry="3" style="stroke:#000000;stroke-width:1;"/><text fill="#000000" font-family="sans-serif" font-size="14" lengthAdjust="spacing" textLength="58.6934" x="1007.56" y="281.9789">quantite</text><ellipse cx="998.56" cy="294.9291" fill="#000000" rx="3" ry="3" style="stroke:#000000;stroke-width:1;"/><text fill="#000000" font-family="sans-serif" font-size="14" lengthAdjust="spacing" textLength="56.6904" x="1007.56" y="298.2757">emprise</text><ellipse cx="998.56" cy="311.2259" fill="#000000" rx="3" ry="3" style="stroke:#000000;stroke-width:1;"/><text fill="#000000" font-family="sans-serif" font-size="14" lengthAdjust="spacing" textLength="32.6211" x="1007.56" y="314.5726">local</text><line style="stroke:#181818;stroke-width:0.5;" x1="988.56" x2="1110.7514" y1="321.8744" y2="321.8744"/></g><!--class Fabrication--><g id="elem_Fabrication"><rect codeLine="65" fill="#F1F1F1" height="113.1875" id="Fabrication" rx="2.5" ry="2.5" style="stroke:#181818;stroke-width:0.5;" width="234.3594" x="1996.56" y="208.39"/><ellipse cx="2070.3608" cy="224.39" fill="#008000" rx="11" ry="11" style="stroke:#181818;stroke-width:1;"/><path d="M2066.5795,230.89 L2066.5795,218.39 L2068.5795,218.39 L2070.1108,224.5306 L2071.642,218.39 L2073.642,218.39 L2073.642,230.89 L2071.8764,230.89 L2071.8764,228.39 Q2071.8764,227.5306 2071.892,226.6713 Q2071.9077,225.7963 2071.9545,224.9369 Q2072.017,224.0775 2072.0639,223.2181 Q2072.1264,222.3431 2072.1889,221.4681 L2070.7514,227.14 L2069.4702,227.14 L2068.0327,221.4681 Q2068.0952,222.3431 2068.142,223.2181 Q2068.2045,224.0775 2068.2514,224.9369 Q2068.3139,225.7963 2068.3295,226.6713 Q2068.3452,227.5306 2068.3452,228.39 L2068.3452,230.89 L2066.5795,230.89 Z " fill="#000000"/><text fill="#000000" font-family="sans-serif" font-size="14" lengthAdjust="spacing" textLength="78.2578" x="2090.8608" y="229.2367">Fabrication</text><line style="stroke:#181818;stroke-width:0.5;" x1="1997.56" x2="2229.9194" y1="240.39" y2="240.39"/><ellipse cx="2007.56" cy="254.0384" fill="#000000" rx="3" ry="3" style="stroke:#000000;stroke-width:1;"/><text fill="#000000" font-family="sans-serif" font-size="14" lengthAdjust="spacing" textLength="50.3467" x="2016.56" y="257.3851">produit</text><ellipse cx="2007.56" cy="270.3353" fill="#000000" rx="3" ry="3" style="stroke:#000000;stroke-width:1;"/><text fill="#000000" font-family="sans-serif" font-size="14" lengthAdjust="spacing" textLength="208.3594" x="2016.56" y="273.682">utilisations_matiere_premiere</text><ellipse cx="2007.56" cy="286.6322" fill="#000000" rx="3" ry="3" style="stroke:#000000;stroke-width:1;"/><text fill="#000000" font-family="sans-serif" font-size="14" lengthAdjust="spacing" textLength="67.457" x="2016.56" y="289.9789">machines</text><ellipse cx="2007.56" cy="302.9291" fill="#000000" rx="3" ry="3" style="stroke:#000000;stroke-width:1;"/><text fill="#000000" font-family="sans-serif" font-size="14" lengthAdjust="spacing" textLength="151.3887" x="2016.56" y="306.2757">ressources_humaines</text><line style="stroke:#181818;stroke-width:0.5;" x1="1997.56" x2="2229.9194" y1="313.5775" y2="313.5775"/></g><!--class Metier--><g id="elem_Metier"><rect codeLine="72" fill="#F1F1F1" height="80.5938" id="Metier" rx="2.5" ry="2.5" style="stroke:#181818;stroke-width:0.5;" width="121.5186" x="1407.8" y="224.59"/><ellipse cx="1443.0852" cy="240.59" fill="#008000" rx="11" ry="11" style="stroke:#181818;stroke-width:1;"/><path d="M1439.3039,247.09 L1439.3039,234.59 L1441.3039,234.59 L1442.8352,240.7306 L1444.3664,234.59 L1446.3664,234.59 L1446.3664,247.09 L1444.6008,247.09 L1444.6008,244.59 Q1444.6008,243.7306 1444.6164,242.8712 Q1444.632,241.9962 1444.6789,241.1369 Q1444.7414,240.2775 1444.7883,239.4181 Q1444.8508,238.5431 1444.9133,237.6681 L1443.4758,243.34 L1442.1945,243.34 L1440.757,237.6681 Q1440.8195,238.5431 1440.8664,239.4181 Q1440.9289,240.2775 1440.9758,241.1369 Q1441.0383,241.9962 1441.0539,242.8712 Q1441.0695,243.7306 1441.0695,244.59 L1441.0695,247.09 L1439.3039,247.09 Z " fill="#000000"/><text fill="#000000" font-family="sans-serif" font-size="14" lengthAdjust="spacing" textLength="44.4404" x="1461.593" y="245.4367">Metier</text><line style="stroke:#181818;stroke-width:0.5;" x1="1408.8" x2="1528.3186" y1="256.59" y2="256.59"/><ellipse cx="1418.8" cy="270.2384" fill="#000000" rx="3" ry="3" style="stroke:#000000;stroke-width:1;"/><text fill="#000000" font-family="sans-serif" font-size="14" lengthAdjust="spacing" textLength="31.0762" x="1427.8" y="273.5851">nom</text><ellipse cx="1418.8" cy="286.5353" fill="#000000" rx="3" ry="3" style="stroke:#000000;stroke-width:1;"/><text fill="#000000" font-family="sans-serif" font-size="14" lengthAdjust="spacing" textLength="95.5186" x="1427.8" y="289.882">remuneration</text><line style="stroke:#181818;stroke-width:0.5;" x1="1408.8" x2="1528.3186" y1="297.1838" y2="297.1838"/></g><!--class RessourceHumaine--><g id="elem_RessourceHumaine"><rect codeLine="77" fill="#F1F1F1" height="80.5938" id="RessourceHumaine" rx="2.5" ry="2.5" style="stroke:#181818;stroke-width:0.5;" width="167.4268" x="1572.06" y="224.89"/><ellipse cx="1587.06" cy="240.89" fill="#008000" rx="11" ry="11" style="stroke:#181818;stroke-width:1;"/><path d="M1583.2788,247.39 L1583.2788,234.89 L1585.2788,234.89 L1586.81,241.0306 L1588.3413,234.89 L1590.3413,234.89 L1590.3413,247.39 L1588.5756,247.39 L1588.5756,244.89 Q1588.5756,244.0306 1588.5913,243.1713 Q1588.6069,242.2963 1588.6538,241.4369 Q1588.7163,240.5775 1588.7631,239.7181 Q1588.8256,238.8431 1588.8881,237.9681 L1587.4506,243.64 L1586.1694,243.64 L1584.7319,237.9681 Q1584.7944,238.8431 1584.8413,239.7181 Q1584.9038,240.5775 1584.9506,241.4369 Q1585.0131,242.2963 1585.0288,243.1713 Q1585.0444,244.0306 1585.0444,244.89 L1585.0444,247.39 L1583.2788,247.39 Z " fill="#000000"/><text fill="#000000" font-family="sans-serif" font-size="14" lengthAdjust="spacing" textLength="135.4268" x="1601.06" y="245.7367">RessourceHumaine</text><line style="stroke:#181818;stroke-width:0.5;" x1="1573.06" x2="1738.4868" y1="256.89" y2="256.89"/><ellipse cx="1583.06" cy="270.5384" fill="#000000" rx="3" ry="3" style="stroke:#000000;stroke-width:1;"/><text fill="#000000" font-family="sans-serif" font-size="14" lengthAdjust="spacing" textLength="45.999" x="1592.06" y="273.8851">metier</text><ellipse cx="1583.06" cy="286.8353" fill="#000000" rx="3" ry="3" style="stroke:#000000;stroke-width:1;"/><text fill="#000000" font-family="sans-serif" font-size="14" lengthAdjust="spacing" textLength="58.6934" x="1592.06" y="290.182">quantite</text><line style="stroke:#181818;stroke-width:0.5;" x1="1573.06" x2="1738.4868" y1="297.4838" y2="297.4838"/></g><!--reverse link QuantiteMatierePremiere to UtilisationMatierePremiere--><g id="link_QuantiteMatierePremiere_UtilisationMatierePremiere"><path codeLine="82" d="M1047.0298,108.1386 C1080.5898,126.8586 1103.78,140.97 1137.56,163.89 C1173.14,188.04 1211.51,219.32 1236.44,240.42 " fill="none" id="QuantiteMatierePremiere-backto-UtilisationMatierePremiere" style="stroke:#181818;stroke-width:1;"/><polygon fill="none" points="1031.31,99.37,1044.1069,113.3785,1049.9527,102.8987,1031.31,99.37" style="stroke:#181818;stroke-width:1;"/></g><!--reverse link QuantiteMatierePremiere to ApprovisionnementMatierePremiere--><g id="link_QuantiteMatierePremiere_ApprovisionnementMatierePremiere"><path codeLine="83" d="M870.6958,109.3735 C820.9158,142.3635 767.04,178.07 714.48,212.91 " fill="none" id="QuantiteMatierePremiere-backto-ApprovisionnementMatierePremiere" style="stroke:#181818;stroke-width:1;"/><polygon fill="none" points="885.7,99.43,867.3813,104.3721,874.0103,114.3749,885.7,99.43" style="stroke:#181818;stroke-width:1;"/></g><!--link Localisation to Local--><g id="link_Localisation_Local"><path codeLine="84" d="M84.82,216.02 C99.96,186.4 123.81,151.12 157.06,133.89 C219.31,101.64 727.26,98.97 788.06,133.89 C801.44,141.58 799.96,149.5 805.56,163.89 C814.87,187.84 792.36,276.89 818.06,276.89 " fill="none" id="Localisation-to-Local" style="stroke:#181818;stroke-width:1;"/><polygon fill="#181818" points="830.06,276.89,824.06,272.89,818.06,276.89,824.06,280.89,830.06,276.89" style="stroke:#181818;stroke-width:1;"/></g><!--link Localisation to ApprovisionnementMatierePremiere--><g id="link_Localisation_ApprovisionnementMatierePremiere"><path codeLine="85" d="M84.82,216.02 C99.96,186.4 123.81,151.12 157.06,133.89 C215.26,103.73 395.21,101.24 452.06,133.89 C465.44,141.58 463.68,149.61 469.56,163.89 C486.49,205.06 438.04,260.89 482.56,260.89 " fill="none" id="Localisation-to-ApprovisionnementMatierePremiere" style="stroke:#181818;stroke-width:1;"/><polygon fill="#181818" points="494.56,260.89,488.56,256.89,482.56,260.89,488.56,264.89,494.56,260.89" style="stroke:#181818;stroke-width:1;"/></g><!--link Localisation to Energie--><g id="link_Localisation_Energie"><path codeLine="86" d="M122.6,286.81 C136,290.36 138.37,292.89 152.06,292.89 " fill="none" id="Localisation-to-Energie" style="stroke:#181818;stroke-width:1;"/><polygon fill="#181818" points="164.06,292.89,158.06,288.89,152.06,292.89,158.06,296.89,164.06,292.89" style="stroke:#181818;stroke-width:1;"/></g><!--link MatierePremiere to QuantiteMatierePremiere--><g id="link_MatierePremiere_QuantiteMatierePremiere"><path codeLine="87" d="M803.17,72.05 C817.01,74.07 819.42,75.44 833.06,75.44 " fill="none" id="MatierePremiere-to-QuantiteMatierePremiere" style="stroke:#181818;stroke-width:1;"/><polygon fill="#181818" points="845.06,75.44,839.06,71.44,833.06,75.44,839.06,79.44,845.06,75.44" style="stroke:#181818;stroke-width:1;"/></g><!--link Local to Machine--><g id="link_Local_Machine"><path codeLine="88" d="M906.86,212.96 C922.91,183.98 947.28,150.45 980.06,133.89 C1018.09,114.67 1710.11,112.67 1747.06,133.89 C1760.44,141.58 1759.52,149.3 1764.56,163.89 C1777.59,201.63 1737.13,341.89 1777.06,341.89 " fill="none" id="Local-to-Machine" style="stroke:#181818;stroke-width:1;"/><polygon fill="#181818" points="1789.06,341.89,1783.06,337.89,1777.06,341.89,1783.06,345.89,1789.06,341.89" style="stroke:#181818;stroke-width:1;"/></g><!--link Local to Produit--><g id="link_Local_Produit"><path codeLine="89" d="M943.96,300.28 C957.51,305.62 960.16,309.39 974.56,309.39 " fill="none" id="Local-to-Produit" style="stroke:#181818;stroke-width:1;"/><polygon fill="#181818" points="986.56,309.39,980.56,305.39,974.56,309.39,980.56,313.39,986.56,309.39" style="stroke:#181818;stroke-width:1;"/></g><!--link Energie to DebitEnergie--><g id="link_Energie_DebitEnergie"><path codeLine="90" d="M278.02,280.6 C291.72,283.1 294.32,284.89 308.06,284.89 " fill="none" id="Energie-to-DebitEnergie" style="stroke:#181818;stroke-width:1;"/><polygon fill="#181818" points="320.06,284.89,314.06,280.89,308.06,284.89,314.06,288.89,320.06,284.89" style="stroke:#181818;stroke-width:1;"/></g><!--link Produit to Fabrication--><g id="link_Produit_Fabrication"><path codeLine="91" d="M1086.53,196.45 C1103.58,172.03 1126.27,147.27 1154.06,133.89 C1194.05,114.63 1914.56,111.78 1953.06,133.89 C1966.44,141.58 1964.52,149.68 1970.56,163.89 C1986.54,201.51 1942.68,252.39 1983.56,252.39 " fill="none" id="Produit-to-Fabrication" style="stroke:#181818;stroke-width:1;"/><polygon fill="#181818" points="1995.56,252.39,1989.56,248.39,1983.56,252.39,1989.56,256.39,1995.56,252.39" style="stroke:#181818;stroke-width:1;"/></g><!--link UtilisationMatierePremiere to Fabrication--><g id="link_UtilisationMatierePremiere_Fabrication"><path codeLine="92" d="M1280.99,240.52 C1305.28,208.91 1352.61,155.28 1408.06,133.89 C1464.55,112.09 1900.55,103.73 1953.06,133.89 C1966.44,141.58 1964.81,149.56 1970.56,163.89 C1988.33,208.21 1935.8,268.39 1983.56,268.39 " fill="none" id="UtilisationMatierePremiere-to-Fabrication" style="stroke:#181818;stroke-width:1;"/><polygon fill="none" points="1995.56,268.39,1989.56,264.39,1983.56,268.39,1989.56,272.39,1995.56,268.39" style="stroke:#181818;stroke-width:1;"/></g><!--link Machine to Fabrication--><g id="link_Machine_Fabrication"><path codeLine="93" d="M1952.99,281.51 C1967.14,283.25 1969.73,284.39 1983.56,284.39 " fill="none" id="Machine-to-Fabrication" style="stroke:#181818;stroke-width:1;"/><polygon fill="none" points="1995.56,284.39,1989.56,280.39,1983.56,284.39,1989.56,288.39,1995.56,284.39" style="stroke:#181818;stroke-width:1;"/></g><!--link Metier to RessourceHumaine--><g id="link_Metier_RessourceHumaine"><path codeLine="94" d="M1529.65,268.04 C1543.26,268.54 1545.65,268.89 1559.06,268.89 " fill="none" id="Metier-to-RessourceHumaine" style="stroke:#181818;stroke-width:1;"/><polygon fill="#181818" points="1571.06,268.89,1565.06,264.89,1559.06,268.89,1565.06,272.89,1571.06,268.89" style="stroke:#181818;stroke-width:1;"/></g><!--link RessourceHumaine to Fabrication--><g id="link_RessourceHumaine_Fabrication"><path codeLine="95" d="M1683.41,221.18 C1705.84,190.36 1740.44,151.56 1782.06,133.89 C1852.01,104.19 1887.15,96.04 1953.06,133.89 C1966.44,141.58 1965.2,149.41 1970.56,163.89 C1981.26,192.81 1952.72,300.39 1983.56,300.39 " fill="none" id="RessourceHumaine-to-Fabrication" style="stroke:#181818;stroke-width:1;"/><polygon fill="none" points="1995.56,300.39,1989.56,296.39,1983.56,300.39,1989.56,304.39,1995.56,300.39" style="stroke:#181818;stroke-width:1;"/></g><!--link RessourceHumaine to Machine--><g id="link_RessourceHumaine_Machine"><path codeLine="96" d="M1746.7,260.57 C1760.87,260.16 1763.36,259.89 1777.06,259.89 " fill="none" id="RessourceHumaine-to-Machine" style="stroke:#181818;stroke-width:1;"/><polygon fill="none" points="1789.06,259.89,1783.06,255.89,1777.06,259.89,1783.06,263.89,1789.06,259.89" style="stroke:#181818;stroke-width:1;"/></g><!--link DebitEnergie to Machine--><g id="link_DebitEnergie_Machine"><path codeLine="97" d="M404.25,221.07 C422.08,190.41 450.52,151.85 488.06,133.89 C551.15,103.69 1686.4,99.05 1747.06,133.89 C1760.44,141.58 1759.3,149.38 1764.56,163.89 C1775.69,194.61 1744.38,308.89 1777.06,308.89 " fill="none" id="DebitEnergie-to-Machine" style="stroke:#181818;stroke-width:1;"/><polygon fill="#181818" points="1789.06,308.89,1783.06,304.89,1777.06,308.89,1783.06,312.89,1789.06,308.89" style="stroke:#181818;stroke-width:1;"/></g><!--SRC=[ZLJBJiCm4BpdAtA4ghrmjAfAbG1ne591uXovxb8i4ZluKLK2_Xq_uiHvrE4KnzuPhsTdbvHOoloP4rnIYHNbB5-lyvlTyYG0s6s-sUJVMPul6A_iH-4BIBke1RqKrLtscsMaeqXYo-WI-o-rUCS4EegTEG81Um6L_IR9fEBaqowWCgd8YEL5OwQeWYcsxV9GQkZ8lffOkwvyV54tW8xnJT6GztoABMfRruAVgJGe1XKmzQ_d3KLoEcj65QR2fNc44bCPYqO-A4kBvKXC75RsZt2jYWfJfe1XHXmhhq5W1Lf8VyU1ghX4OQy01k94mLj1cymwQThikzpkBUR1GwOJR6yAn2qs2OlUDHAjPTWBVjHKpIjpXE9iwWD3HmHhZH_sY0-2aaIxrFvkkumaaiN8PCvuhe9EUG5ISYq8oE93snf1N6gmuEHx3ArcjfGz9Lu3wvFddAQe77rF1CDmjPr-Lgj4PwHnSxsHzGRIQk6d2qAzGWzZvaXdu8tX1b73z4tWbPSXD2gkdua6qZHfmztjDnOD-y7pvYHk7OH2TmHBcu38WWW5koKcrOht8MbRXgaoHBLURRne4XcQomHv8urSDoIRCliKg5KlcbAzqH8ht9zJVm00]--></g></svg>