<?xml version="1.0" standalone="no"?>
<!DOCTYPE svg PUBLIC "-//W3C//DTD SVG 1.1//EN" "http://www.w3.org/Graphics/SVG/1.1/DTD/svg11.dtd">
<svg xmlns="http://www.w3.org/2000/svg" version="1.1" width="240" height="240">
  <title>logosvg</title>
  <g id="layer1"  transform="translate(120 120) rotate(45)">
  <path d="
M -39.4633,-65.3176 L 3.25618,-53.8709 L 8.43257,-73.1894 L -23.1334,-81.6475 L -0.0254974,-104.755 L -6.12132,-110.851
 L -22.2139,-110.851 L -84.8783,-48.1869 L -70.7362,-34.0447 z
M 99.0607,50.1244 L 107.107,36.1878 L 84.1702,-49.4133 L 64.8517,-44.237 L 76.2983,-1.51744 L 45.0255,29.7554
 L 59.1676,43.8975 L 82.2755,20.7897 L 90.7336,52.3556 z
M 5.88448,78.2817 L -36.835,66.835 L -48.2817,24.1155 L -67.6002,29.2919 L -59.1421,60.8579 L -90.7081,52.3998
 L -92.9393,60.7269 L -84.893,74.6635 L 0.708099,97.6002 z
"  fill="#22314e" /><path d="
M 67.6002,-29.2919 L 59.1421,-60.8579 L 90.7081,-52.3998 L 92.9393,-60.7269 L 84.893,-74.6635 L -0.708099,-97.6002
 L -5.88448,-78.2817 L 36.835,-66.835 L 48.2817,-24.1155 z
M -64.8517,44.237 L -76.2983,1.51744 L -45.0255,-29.7554 L -59.1676,-43.8975 L -82.2755,-20.7897 L -90.7336,-52.3556
 L -99.0607,-50.1244 L -107.107,-36.1878 L -84.1702,49.4133 z
M 84.8783,48.1869 L 70.7362,34.0447 L 39.4633,65.3176 L -3.25618,53.8709 L -8.43257,73.1894 L 23.1334,81.6475
 L 0.0254974,104.755 L 6.12132,110.851 L 22.2139,110.851 z
"  fill="#007a4c" /><path d="
M -39.4633,-65.3176 L 3.25618,-53.8709 L 8.43257,-73.1894 L -23.1334,-81.6475 L -0.0254974,-104.755 L -6.12132,-110.851
 L -22.2139,-110.851 L -84.8783,-48.1869 L -70.7362,-34.0447 z
M 99.0607,50.1244 L 107.107,36.1878 L 84.1702,-49.4133 L 64.8517,-44.237 L 76.2983,-1.51744 L 45.0255,29.7554
 L 59.1676,43.8975 L 82.2755,20.7897 L 90.7336,52.3556 z
M 5.88448,78.2817 L -36.835,66.835 L -48.2817,24.1155 L -67.6002,29.2919 L -59.1421,60.8579 L -90.7081,52.3998
 L -92.9393,60.7269 L -84.893,74.6635 L 0.708099,97.6002 z
"  fill="#22314e" /><path d="
M 67.6002,-29.2919 L 59.1421,-60.8579 L 90.7081,-52.3998 L 92.9393,-60.7269 L 84.893,-74.6635 L -0.708099,-97.6002
 L -5.88448,-78.2817 L 36.835,-66.835 L 48.2817,-24.1155 z
M -64.8517,44.237 L -76.2983,1.51744 L -45.0255,-29.7554 L -59.1676,-43.8975 L -82.2755,-20.7897 L -90.7336,-52.3556
 L -99.0607,-50.1244 L -107.107,-36.1878 L -84.1702,49.4133 z
M 84.8783,48.1869 L 70.7362,34.0447 L 39.4633,65.3176 L -3.25618,53.8709 L -8.43257,73.1894 L 23.1334,81.6475
 L 0.0254974,104.755 L 6.12132,110.851 L 22.2139,110.851 z
"  fill="#007a4c" /><path d="
M -39.4633,-65.3176 L 3.25618,-53.8709 L 8.43257,-73.1894 L -23.1334,-81.6475 L -0.0254974,-104.755 L -6.12132,-110.851
 L -22.2139,-110.851 L -84.8783,-48.1869 L -70.7362,-34.0447 z
M 99.0607,50.1244 L 107.107,36.1878 L 84.1702,-49.4133 L 64.8517,-44.237 L 76.2983,-1.51744 L 45.0255,29.7554
 L 59.1676,43.8975 L 82.2755,20.7897 L 90.7336,52.3556 z
M 5.88448,78.2817 L -36.835,66.835 L -48.2817,24.1155 L -67.6002,29.2919 L -59.1421,60.8579 L -90.7081,52.3998
 L -92.9393,60.7269 L -84.893,74.6635 L 0.708099,97.6002 z
"  fill="#22314e" /><path d="
M 67.6002,-29.2919 L 59.1421,-60.8579 L 90.7081,-52.3998 L 92.9393,-60.7269 L 84.893,-74.6635 L -0.708099,-97.6002
 L -5.88448,-78.2817 L 36.835,-66.835 L 48.2817,-24.1155 z
M -64.8517,44.237 L -76.2983,1.51744 L -45.0255,-29.7554 L -59.1676,-43.8975 L -82.2755,-20.7897 L -90.7336,-52.3556
 L -99.0607,-50.1244 L -107.107,-36.1878 L -84.1702,49.4133 z
M 84.8783,48.1869 L 70.7362,34.0447 L 39.4633,65.3176 L -3.25618,53.8709 L -8.43257,73.1894 L 23.1334,81.6475
 L 0.0254974,104.755 L 6.12132,110.851 L 22.2139,110.851 z
"  fill="#007a4c" /><path d="
M -39.4633,-65.3176 L 3.25618,-53.8709 L 8.43257,-73.1894 L -23.1334,-81.6475 L -0.0254974,-104.755 L -6.12132,-110.851
 L -22.2139,-110.851 L -84.8783,-48.1869 L -70.7362,-34.0447 z
M 99.0607,50.1244 L 107.107,36.1878 L 84.1702,-49.4133 L 64.8517,-44.237 L 76.2983,-1.51744 L 45.0255,29.7554
 L 59.1676,43.8975 L 82.2755,20.7897 L 90.7336,52.3556 z
M 5.88448,78.2817 L -36.835,66.835 L -48.2817,24.1155 L -67.6002,29.2919 L -59.1421,60.8579 L -90.7081,52.3998
 L -92.9393,60.7269 L -84.893,74.6635 L 0.708099,97.6002 z
"  fill="#22314e" />
  </g>
</svg>
