<?xml version="1.0" encoding="UTF-8"?> <svg xmlns="http://www.w3.org/2000/svg" xmlns:xlink="http://www.w3.org/1999/xlink" viewBox="0 0 348.928 100.46"><g id="Groupe_20" data-name="Groupe 20" transform="translate(0 0)"><g id="Groupe_19" data-name="Groupe 19" transform="translate(0 0)" clip-path="url(#clip-path)"><path id="Tracé_4" data-name="Tracé 4" d="M55.588,13.241a8.648,8.648,0,1,1-8.649-8.649,8.649,8.649,0,0,1,8.649,8.649" transform="translate(23.997 2.878)" fill="#47c0f0"></path><path id="Tracé_5" data-name="Tracé 5" d="M141.361,86.389c-2.738-5.765-5.57-11.354-8.418-16.612q-2.362-4.365-4.76-8.508c.239-.176.472-.353.7-.532a30.694,30.694,0,0,0,6.277-6.468,28.841,28.841,0,0,0,3.989-7.976,30.156,30.156,0,0,0,1.375-9.173,28.157,28.157,0,0,0-3.442-13.869,29.642,29.642,0,0,0-9.635-10.234,43.642,43.642,0,0,0-14.045-5.88,74.705,74.705,0,0,0-17.4-1.872c-2.434,0-5.087.055-7.889.168-.722.029-3.222.063-6.177.1a42.884,42.884,0,0,1,4.478,2.554A35.593,35.593,0,0,1,97.9,20.3a57.668,57.668,0,0,1,11.99,1.41,28.885,28.885,0,0,1,9.244,3.779,14.681,14.681,0,0,1,4.857,5.059,13.21,13.21,0,0,1,1.547,6.577,15.251,15.251,0,0,1-.662,4.613,13.72,13.72,0,0,1-1.918,3.836,15.731,15.731,0,0,1-3.227,3.3,26.05,26.05,0,0,1-4.978,2.967,7.493,7.493,0,0,0-3.245,10.713c2.746,4.485,5.523,9.316,8.254,14.36,2.723,5.026,5.435,10.377,8.057,15.9a7.494,7.494,0,0,0,13.539-6.427" transform="translate(51.352 3.301)" fill="#575756"></path><path id="Tracé_6" data-name="Tracé 6" d="M46.46,6.691A10.388,10.388,0,0,1,60.54,12.41a5.5,5.5,0,0,1,5.75-.869A16.141,16.141,0,0,0,50.842,0a15.962,15.962,0,0,0-6.8,1.5A2.862,2.862,0,0,0,46.46,6.691" transform="translate(26.564 0)" fill="#4a4a49"></path><path id="Tracé_7" data-name="Tracé 7" d="M64.1,14.287a5.552,5.552,0,0,1-3.907-1.606A10.387,10.387,0,0,1,46.456,17.6a2.861,2.861,0,1,0-2.412,5.189,15.978,15.978,0,0,0,6.8,1.5A16.131,16.131,0,0,0,65.863,13.974a5.5,5.5,0,0,1-1.763.312" transform="translate(26.564 7.948)" fill="#4a4a49"></path><path id="Tracé_8" data-name="Tracé 8" d="M116.14,86.426c-2.726-5.744-5.558-11.335-8.417-16.613-1.575-2.909-3.166-5.752-4.76-8.508.236-.174.472-.351.7-.529a30.746,30.746,0,0,0,6.277-6.469,28.859,28.859,0,0,0,3.987-7.976,30.148,30.148,0,0,0,1.375-9.173,28.135,28.135,0,0,0-3.44-13.866,29.67,29.67,0,0,0-9.637-10.242A43.811,43.811,0,0,0,88.187,7.174l-1.755-.433A39.084,39.084,0,0,0,74.784,5.3c-2.466,0-5.121.057-7.889.166s-5.581.257-8.467.439a7.492,7.492,0,0,0,.942,14.954q4.151-.259,8.117-.42c2.575-.1,5.028-.153,7.3-.153a24.908,24.908,0,0,1,8.008.989l1.877.464a28.98,28.98,0,0,1,9.248,3.779,14.68,14.68,0,0,1,4.856,5.061,13.2,13.2,0,0,1,1.549,6.577,15.233,15.233,0,0,1-.662,4.612,13.737,13.737,0,0,1-1.916,3.836,15.75,15.75,0,0,1-3.229,3.3,26.043,26.043,0,0,1-4.979,2.965,7.491,7.491,0,0,0-3.244,10.713c2.746,4.485,5.521,9.316,8.251,14.36s5.446,10.4,8.06,15.906a7.493,7.493,0,1,0,13.537-6.429M58.447,18.91a5.571,5.571,0,1,1,5.571-5.571,5.572,5.572,0,0,1-5.571,5.571" transform="translate(32.216 3.324)" fill="#47c0f0"></path><path id="Tracé_9" data-name="Tracé 9" d="M267.74,78.558c-.314-.06-22.369-4.647-41.162-28.418a135.041,135.041,0,0,0,15.956-36.793,7.76,7.76,0,0,0-14.962-4.12,123.918,123.918,0,0,1-10.5,26.426,117.015,117.015,0,0,1-6.744-14.779,7.96,7.96,0,1,0-14.889,5.635A129.62,129.62,0,0,0,207.257,50.5c-14.663,18.321-31.316,25.141-38.413,27.341a37.936,37.936,0,0,1-8.122.865,27.691,27.691,0,0,1-8.784-1.288,19.22,19.22,0,0,1-6.58-3.644,17.731,17.731,0,0,1-4.373-5.78,23.121,23.121,0,0,1-2.1-7.767V60.08h42.769a4.027,4.027,0,0,0,4.02-3.792q.112-1.879.112-4.013A47.9,47.9,0,0,0,183.58,37.11a31.788,31.788,0,0,0-6.3-11.229,26.568,26.568,0,0,0-9.9-6.993,33.764,33.764,0,0,0-12.958-2.393,35.9,35.9,0,0,0-14.32,2.8,31.153,31.153,0,0,0-11.154,8.024,36.95,36.95,0,0,0-7.18,12.516,49.74,49.74,0,0,0-2.538,16.418,45.828,45.828,0,0,0,2.686,16.16,32.278,32.278,0,0,0,19.99,19.732,47.773,47.773,0,0,0,16.345,2.614,59.15,59.15,0,0,0,8.584-.621l.02,0A7.729,7.729,0,0,0,168.305,94c.283-.052,1.383-.273,3.115-.755.743-.177,1.493-.342,2.219-.55a50.018,50.018,0,0,0,8.958-3.564,99.609,99.609,0,0,0,34.156-25.757C238.436,88.753,263.23,93.907,264.741,94.2a7.962,7.962,0,1,0,3-15.639M140.079,43.207a22.427,22.427,0,0,1,1.161-2.967,17.259,17.259,0,0,1,3.193-4.677,12.4,12.4,0,0,1,4.259-2.871,13.991,13.991,0,0,1,5.251-.956,13.3,13.3,0,0,1,5.323,1.03,10.878,10.878,0,0,1,4.039,2.982,14.163,14.163,0,0,1,2.57,4.675,18.265,18.265,0,0,1,.748,3.162,2.611,2.611,0,0,1-2.608,2.949H142.6a2.6,2.6,0,0,1-2.523-3.327" transform="translate(74.723 2.211)" fill="#47c0f0"></path><path id="Tracé_10" data-name="Tracé 10" d="M51.371,23.156a19.7,19.7,0,0,1-10.2-2.847V76.692a10.2,10.2,0,0,0,20.4,0V20.309a19.7,19.7,0,0,1-10.2,2.847" transform="translate(25.803 12.728)" fill="#575756"></path><path id="Tracé_11" data-name="Tracé 11" d="M57.349,13.047A19.716,19.716,0,0,1,59.16,4.806H8.56a8.56,8.56,0,1,0,0,17.119H28.846V87.094a10.125,10.125,0,0,0,20.251,0V21.925h10.37a19.709,19.709,0,0,1-2.118-8.878" transform="translate(0 3.012)" fill="#575756"></path></g></g></svg>
