<svg xmlns="http://www.w3.org/2000/svg" xmlns:xlink="http://www.w3.org/1999/xlink" version="1.1" data-diagram-type="CLASS" style="width:2800px;height:272px;background:#FFFFFF;" width="2800px" height="272px" viewBox="0 0 2800 272" zoomAndPan="magnify" preserveAspectRatio="none" contentStyleType="text/css"><?plantuml 1.2026.8?><defs/><g font-family="sans-serif" lengthAdjust="spacing"><!--class Produit--><g class="entity" data-qualified-name="Produit" id="ent0001" data-source-line="2"><rect x="1496.52" y="111.5" width="167.114" height="129.484" fill="#F1F1F1" style="stroke:#181818;stroke-width:0.5;" rx="2.5" ry="2.5"/><ellipse cx="1550.876" cy="127.5" rx="11" ry="11" fill="#008000" style="stroke:#181818;stroke-width:1;"/><path d="M1547.095,134 L1547.095,121.5 L1549.095,121.5 L1550.626,127.641 L1552.157,121.5 L1554.157,121.5 L1554.157,134 L1552.392,134 L1552.392,131.5 Q1552.392,130.641 1552.407,129.781 Q1552.423,128.906 1552.47,128.047 Q1552.532,127.188 1552.579,126.328 Q1552.642,125.453 1552.704,124.578 L1551.267,130.25 L1549.985,130.25 L1548.548,124.578 Q1548.61,125.453 1548.657,126.328 Q1548.72,127.188 1548.767,128.047 Q1548.829,128.906 1548.845,129.781 Q1548.86,130.641 1548.86,131.5 L1548.86,134 L1547.095,134 Z " fill="#000"/><text x="1571.376" y="132.347" fill="#000" font-size="14" textLength="49.902">Produit</text><line x1="1497.52" y1="143.5" x2="1662.634" y2="143.5" style="stroke:#181818;stroke-width:0.5;"/><g data-visibility-modifier="IE_MANDATORY"><ellipse cx="1507.52" cy="157.148" rx="3" ry="3" fill="#000" style="stroke:#000;stroke-width:1;"/></g><text x="1516.52" y="160.495" fill="#000" font-size="14" textLength="31.076">nom</text><g data-visibility-modifier="IE_MANDATORY"><ellipse cx="1507.52" cy="173.445" rx="3" ry="3" fill="#000" style="stroke:#000;stroke-width:1;"/></g><text x="1516.52" y="176.792" fill="#000" font-size="14" textLength="98.191">prix_de_vente</text><g data-visibility-modifier="IE_MANDATORY"><ellipse cx="1507.52" cy="189.742" rx="3" ry="3" fill="#000" style="stroke:#000;stroke-width:1;"/></g><text x="1516.52" y="193.089" fill="#000" font-size="14" textLength="93.03">duree_de_vie</text><g data-visibility-modifier="IE_MANDATORY"><ellipse cx="1507.52" cy="206.039" rx="3" ry="3" fill="#000" style="stroke:#000;stroke-width:1;"/></g><text x="1516.52" y="209.386" fill="#000" font-size="14" textLength="141.114">nombre_par_palette</text><g data-visibility-modifier="IE_MANDATORY"><ellipse cx="1507.52" cy="222.336" rx="3" ry="3" fill="#000" style="stroke:#000;stroke-width:1;"/></g><text x="1516.52" y="225.683" fill="#000" font-size="14" textLength="74.512">operations</text><line x1="1497.52" y1="232.984" x2="1662.634" y2="232.984" style="stroke:#181818;stroke-width:0.5;"/></g><!--class Operation--><g class="entity" data-qualified-name="Operation" id="ent0002" data-source-line="10"><rect x="1239.02" y="95" width="206.988" height="162.078" fill="#F1F1F1" style="stroke:#181818;stroke-width:0.5;" rx="2.5" ry="2.5"/><ellipse cx="1303.428" cy="111" rx="11" ry="11" fill="#008000" style="stroke:#181818;stroke-width:1;"/><path d="M1299.647,117.5 L1299.647,105 L1301.647,105 L1303.178,111.141 L1304.709,105 L1306.709,105 L1306.709,117.5 L1304.944,117.5 L1304.944,115 Q1304.944,114.141 1304.959,113.281 Q1304.975,112.406 1305.022,111.547 Q1305.084,110.688 1305.131,109.828 Q1305.194,108.953 1305.256,108.078 L1303.819,113.75 L1302.538,113.75 L1301.1,108.078 Q1301.163,108.953 1301.209,109.828 Q1301.272,110.688 1301.319,111.547 Q1301.381,112.406 1301.397,113.281 Q1301.413,114.141 1301.413,115 L1301.413,117.5 L1299.647,117.5 Z " fill="#000"/><text x="1323.928" y="115.847" fill="#000" font-size="14" textLength="69.672">Operation</text><line x1="1240.02" y1="127" x2="1445.008" y2="127" style="stroke:#181818;stroke-width:0.5;"/><g data-visibility-modifier="IE_MANDATORY"><ellipse cx="1250.02" cy="140.648" rx="3" ry="3" fill="#000" style="stroke:#000;stroke-width:1;"/></g><text x="1259.02" y="143.995" fill="#000" font-size="14" textLength="31.076">nom</text><g data-visibility-modifier="IE_MANDATORY"><ellipse cx="1250.02" cy="156.945" rx="3" ry="3" fill="#000" style="stroke:#000;stroke-width:1;"/></g><text x="1259.02" y="160.292" fill="#000" font-size="14" textLength="134.114">operation_suivante</text><g data-visibility-modifier="IE_MANDATORY"><ellipse cx="1250.02" cy="173.242" rx="3" ry="3" fill="#000" style="stroke:#000;stroke-width:1;"/></g><text x="1259.02" y="176.589" fill="#000" font-size="14" textLength="30.625">cout</text><g data-visibility-modifier="IE_MANDATORY"><ellipse cx="1250.02" cy="189.539" rx="3" ry="3" fill="#000" style="stroke:#000;stroke-width:1;"/></g><text x="1259.02" y="192.886" fill="#000" font-size="14" textLength="60.163">machine</text><g data-visibility-modifier="IE_MANDATORY"><ellipse cx="1250.02" cy="205.836" rx="3" ry="3" fill="#000" style="stroke:#000;stroke-width:1;"/></g><text x="1259.02" y="209.183" fill="#000" font-size="14" textLength="123.334">quantite_produits</text><g data-visibility-modifier="IE_MANDATORY"><ellipse cx="1250.02" cy="222.133" rx="3" ry="3" fill="#000" style="stroke:#000;stroke-width:1;"/></g><text x="1259.02" y="225.479" fill="#000" font-size="14" textLength="123.99">heures_de_travail</text><g data-visibility-modifier="IE_MANDATORY"><ellipse cx="1250.02" cy="238.43" rx="3" ry="3" fill="#000" style="stroke:#000;stroke-width:1;"/></g><text x="1259.02" y="241.776" fill="#000" font-size="14" textLength="180.988">consommation_electrique</text><line x1="1240.02" y1="249.078" x2="1445.008" y2="249.078" style="stroke:#181818;stroke-width:0.5;"/></g><!--class QuantiteProduit--><g class="entity" data-qualified-name="QuantiteProduit" id="ent0003" data-source-line="20"><rect x="2043.02" y="136" width="142.729" height="80.594" fill="#F1F1F1" style="stroke:#181818;stroke-width:0.5;" rx="2.5" ry="2.5"/><ellipse cx="2058.02" cy="152" rx="11" ry="11" fill="#008000" style="stroke:#181818;stroke-width:1;"/><path d="M2054.239,158.5 L2054.239,146 L2056.239,146 L2057.77,152.141 L2059.301,146 L2061.301,146 L2061.301,158.5 L2059.536,158.5 L2059.536,156 Q2059.536,155.141 2059.551,154.281 Q2059.567,153.406 2059.614,152.547 Q2059.676,151.688 2059.723,150.828 Q2059.786,149.953 2059.848,149.078 L2058.411,154.75 L2057.129,154.75 L2055.692,149.078 Q2055.754,149.953 2055.801,150.828 Q2055.864,151.688 2055.911,152.547 Q2055.973,153.406 2055.989,154.281 Q2056.004,155.141 2056.004,156 L2056.004,158.5 L2054.239,158.5 Z " fill="#000"/><text x="2072.02" y="156.847" fill="#000" font-size="14" textLength="110.729">QuantiteProduit</text><line x1="2044.02" y1="168" x2="2184.749" y2="168" style="stroke:#181818;stroke-width:0.5;"/><g data-visibility-modifier="IE_MANDATORY"><ellipse cx="2054.02" cy="181.648" rx="3" ry="3" fill="#000" style="stroke:#000;stroke-width:1;"/></g><text x="2063.02" y="184.995" fill="#000" font-size="14" textLength="50.347">produit</text><g data-visibility-modifier="IE_MANDATORY"><ellipse cx="2054.02" cy="197.945" rx="3" ry="3" fill="#000" style="stroke:#000;stroke-width:1;"/></g><text x="2063.02" y="201.292" fill="#000" font-size="14" textLength="54.332">nombre</text><line x1="2044.02" y1="208.594" x2="2184.749" y2="208.594" style="stroke:#181818;stroke-width:0.5;"/></g><!--class Stock--><g class="entity" data-qualified-name="Stock" id="ent0004" data-source-line="25"><rect x="2236.52" y="136" width="149.334" height="80.594" fill="#F1F1F1" style="stroke:#181818;stroke-width:0.5;" rx="2.5" ry="2.5"/><ellipse cx="2287.564" cy="152" rx="11" ry="11" fill="#008000" style="stroke:#181818;stroke-width:1;"/><path d="M2283.783,158.5 L2283.783,146 L2285.783,146 L2287.314,152.141 L2288.845,146 L2290.845,146 L2290.845,158.5 L2289.08,158.5 L2289.08,156 Q2289.08,155.141 2289.095,154.281 Q2289.111,153.406 2289.158,152.547 Q2289.22,151.688 2289.267,150.828 Q2289.33,149.953 2289.392,149.078 L2287.955,154.75 L2286.673,154.75 L2285.236,149.078 Q2285.298,149.953 2285.345,150.828 Q2285.408,151.688 2285.455,152.547 Q2285.517,153.406 2285.533,154.281 Q2285.548,155.141 2285.548,156 L2285.548,158.5 L2283.783,158.5 Z " fill="#000"/><text x="2308.064" y="156.847" fill="#000" font-size="14" textLength="38.746">Stock</text><line x1="2237.52" y1="168" x2="2384.854" y2="168" style="stroke:#181818;stroke-width:0.5;"/><g data-visibility-modifier="IE_MANDATORY"><ellipse cx="2247.52" cy="181.648" rx="3" ry="3" fill="#000" style="stroke:#000;stroke-width:1;"/></g><text x="2256.52" y="184.995" fill="#000" font-size="14" textLength="123.334">quantite_produits</text><g data-visibility-modifier="IE_MANDATORY"><ellipse cx="2247.52" cy="197.945" rx="3" ry="3" fill="#000" style="stroke:#000;stroke-width:1;"/></g><text x="2256.52" y="201.292" fill="#000" font-size="14" textLength="94.356">palettes_max</text><line x1="2237.52" y1="208.594" x2="2384.854" y2="208.594" style="stroke:#181818;stroke-width:0.5;"/></g><!--class Lieu--><g class="entity" data-qualified-name="Lieu" id="ent0005" data-source-line="30"><rect x="787.02" y="111.5" width="206.988" height="129.484" fill="#F1F1F1" style="stroke:#181818;stroke-width:0.5;" rx="2.5" ry="2.5"/><ellipse cx="871.676" cy="127.5" rx="11" ry="11" fill="#008000" style="stroke:#181818;stroke-width:1;"/><path d="M867.895,134 L867.895,121.5 L869.895,121.5 L871.426,127.641 L872.958,121.5 L874.958,121.5 L874.958,134 L873.192,134 L873.192,131.5 Q873.192,130.641 873.208,129.781 Q873.223,128.906 873.27,128.047 Q873.333,127.188 873.379,126.328 Q873.442,125.453 873.504,124.578 L872.067,130.25 L870.786,130.25 L869.348,124.578 Q869.411,125.453 869.458,126.328 Q869.52,127.188 869.567,128.047 Q869.629,128.906 869.645,129.781 Q869.661,130.641 869.661,131.5 L869.661,134 L867.895,134 Z " fill="#000"/><text x="892.176" y="132.347" fill="#000" font-size="14" textLength="29.176">Lieu</text><line x1="788.02" y1="143.5" x2="993.008" y2="143.5" style="stroke:#181818;stroke-width:0.5;"/><g data-visibility-modifier="IE_MANDATORY"><ellipse cx="798.02" cy="157.148" rx="3" ry="3" fill="#000" style="stroke:#000;stroke-width:1;"/></g><text x="807.02" y="160.495" fill="#000" font-size="14" textLength="31.076">nom</text><g data-visibility-modifier="IE_MANDATORY"><ellipse cx="798.02" cy="173.445" rx="3" ry="3" fill="#000" style="stroke:#000;stroke-width:1;"/></g><text x="807.02" y="176.792" fill="#000" font-size="14" textLength="28.567">ville</text><g data-visibility-modifier="IE_MANDATORY"><ellipse cx="798.02" cy="189.742" rx="3" ry="3" fill="#000" style="stroke:#000;stroke-width:1;"/></g><text x="807.02" y="193.089" fill="#000" font-size="14" textLength="68.441">superficie</text><g data-visibility-modifier="IE_MANDATORY"><ellipse cx="798.02" cy="206.039" rx="3" ry="3" fill="#000" style="stroke:#000;stroke-width:1;"/></g><text x="807.02" y="209.386" fill="#000" font-size="14" textLength="133.15">quantite_machines</text><g data-visibility-modifier="IE_MANDATORY"><ellipse cx="798.02" cy="222.336" rx="3" ry="3" fill="#000" style="stroke:#000;stroke-width:1;"/></g><text x="807.02" y="225.683" fill="#000" font-size="14" textLength="180.988">consommation_electrique</text><line x1="788.02" y1="232.984" x2="993.008" y2="232.984" style="stroke:#181818;stroke-width:0.5;"/></g><!--class Ville--><g class="entity" data-qualified-name="Ville" id="ent0006" data-source-line="38"><rect x="196.52" y="119.5" width="147.235" height="113.188" fill="#F1F1F1" style="stroke:#181818;stroke-width:0.5;" rx="2.5" ry="2.5"/><ellipse cx="250.958" cy="135.5" rx="11" ry="11" fill="#008000" style="stroke:#181818;stroke-width:1;"/><path d="M247.177,142 L247.177,129.5 L249.177,129.5 L250.708,135.641 L252.239,129.5 L254.239,129.5 L254.239,142 L252.474,142 L252.474,139.5 Q252.474,138.641 252.489,137.781 Q252.505,136.906 252.552,136.047 Q252.614,135.188 252.661,134.328 Q252.724,133.453 252.786,132.578 L251.349,138.25 L250.067,138.25 L248.63,132.578 Q248.692,133.453 248.739,134.328 Q248.802,135.188 248.849,136.047 Q248.911,136.906 248.927,137.781 Q248.942,138.641 248.942,139.5 L248.942,142 L247.177,142 Z " fill="#000"/><text x="271.458" y="140.347" fill="#000" font-size="14" textLength="29.859">Ville</text><line x1="197.52" y1="151.5" x2="342.755" y2="151.5" style="stroke:#181818;stroke-width:0.5;"/><g data-visibility-modifier="IE_MANDATORY"><ellipse cx="207.52" cy="165.148" rx="3" ry="3" fill="#000" style="stroke:#000;stroke-width:1;"/></g><text x="216.52" y="168.495" fill="#000" font-size="14" textLength="31.076">nom</text><g data-visibility-modifier="IE_MANDATORY"><ellipse cx="207.52" cy="181.445" rx="3" ry="3" fill="#000" style="stroke:#000;stroke-width:1;"/></g><text x="216.52" y="184.792" fill="#000" font-size="14" textLength="121.235">taxe_immobiliere</text><g data-visibility-modifier="IE_MANDATORY"><ellipse cx="207.52" cy="197.742" rx="3" ry="3" fill="#000" style="stroke:#000;stroke-width:1;"/></g><text x="216.52" y="201.089" fill="#000" font-size="14" textLength="56.362">prix_m2</text><g data-visibility-modifier="IE_MANDATORY"><ellipse cx="207.52" cy="214.039" rx="3" ry="3" fill="#000" style="stroke:#000;stroke-width:1;"/></g><text x="216.52" y="217.386" fill="#000" font-size="14" textLength="33.045">pays</text><line x1="197.52" y1="224.688" x2="342.755" y2="224.688" style="stroke:#181818;stroke-width:0.5;"/></g><!--class Pays--><g class="entity" data-qualified-name="Pays" id="ent0007" data-source-line="45"><rect x="7" y="119.41" width="146.039" height="113.188" fill="#F1F1F1" style="stroke:#181818;stroke-width:0.5;" rx="2.5" ry="2.5"/><ellipse cx="59.469" cy="135.41" rx="11" ry="11" fill="#008000" style="stroke:#181818;stroke-width:1;"/><path d="M55.688,141.91 L55.688,129.41 L57.688,129.41 L59.219,135.551 L60.75,129.41 L62.75,129.41 L62.75,141.91 L60.985,141.91 L60.985,139.41 Q60.985,138.551 61,137.691 Q61.016,136.816 61.063,135.957 Q61.125,135.098 61.172,134.238 Q61.235,133.363 61.297,132.488 L59.86,138.16 L58.579,138.16 L57.141,132.488 Q57.204,133.363 57.25,134.238 Q57.313,135.098 57.36,135.957 Q57.422,136.816 57.438,137.691 Q57.454,138.551 57.454,139.41 L57.454,141.91 L55.688,141.91 Z " fill="#000"/><text x="79.969" y="140.257" fill="#000" font-size="14" textLength="32.601">Pays</text><line x1="8" y1="151.41" x2="152.039" y2="151.41" style="stroke:#181818;stroke-width:0.5;"/><g data-visibility-modifier="IE_MANDATORY"><ellipse cx="18" cy="165.058" rx="3" ry="3" fill="#000" style="stroke:#000;stroke-width:1;"/></g><text x="27" y="168.405" fill="#000" font-size="14" textLength="31.076">nom</text><g data-visibility-modifier="IE_MANDATORY"><ellipse cx="18" cy="181.355" rx="3" ry="3" fill="#000" style="stroke:#000;stroke-width:1;"/></g><text x="27" y="184.702" fill="#000" font-size="14" textLength="22.354">tva</text><g data-visibility-modifier="IE_MANDATORY"><ellipse cx="18" cy="197.652" rx="3" ry="3" fill="#000" style="stroke:#000;stroke-width:1;"/></g><text x="27" y="200.999" fill="#000" font-size="14" textLength="105.964">tarif_electrique</text><g data-visibility-modifier="IE_MANDATORY"><ellipse cx="18" cy="213.949" rx="3" ry="3" fill="#000" style="stroke:#000;stroke-width:1;"/></g><text x="27" y="217.296" fill="#000" font-size="14" textLength="120.039">salaire_minimum</text><line x1="8" y1="224.598" x2="152.039" y2="224.598" style="stroke:#181818;stroke-width:0.5;"/></g><!--class Fournisseur--><g class="entity" data-qualified-name="Fournisseur" id="ent0008" data-source-line="52"><rect x="1874.52" y="136" width="117.458" height="80.594" fill="#F1F1F1" style="stroke:#181818;stroke-width:0.5;" rx="2.5" ry="2.5"/><ellipse cx="1891.148" cy="152" rx="11" ry="11" fill="#008000" style="stroke:#181818;stroke-width:1;"/><path d="M1887.367,158.5 L1887.367,146 L1889.367,146 L1890.898,152.141 L1892.429,146 L1894.429,146 L1894.429,158.5 L1892.664,158.5 L1892.664,156 Q1892.664,155.141 1892.679,154.281 Q1892.695,153.406 1892.742,152.547 Q1892.804,151.688 1892.851,150.828 Q1892.914,149.953 1892.976,149.078 L1891.539,154.75 L1890.258,154.75 L1888.82,149.078 Q1888.883,149.953 1888.929,150.828 Q1888.992,151.688 1889.039,152.547 Q1889.101,153.406 1889.117,154.281 Q1889.133,155.141 1889.133,156 L1889.133,158.5 L1887.367,158.5 Z " fill="#000"/><text x="1905.51" y="156.847" fill="#000" font-size="14" textLength="81.84">Fournisseur</text><line x1="1875.52" y1="168" x2="1990.978" y2="168" style="stroke:#181818;stroke-width:0.5;"/><g data-visibility-modifier="IE_MANDATORY"><ellipse cx="1885.52" cy="181.648" rx="3" ry="3" fill="#000" style="stroke:#000;stroke-width:1;"/></g><text x="1894.52" y="184.995" fill="#000" font-size="14" textLength="31.076">nom</text><g data-visibility-modifier="IE_MANDATORY"><ellipse cx="1885.52" cy="197.945" rx="3" ry="3" fill="#000" style="stroke:#000;stroke-width:1;"/></g><text x="1894.52" y="201.292" fill="#000" font-size="14" textLength="91.458">prix_produits</text><line x1="1875.52" y1="208.594" x2="1990.978" y2="208.594" style="stroke:#181818;stroke-width:0.5;"/></g><!--class PrixProduit--><g class="entity" data-qualified-name="PrixProduit" id="ent0009" data-source-line="57"><rect x="1715.02" y="136" width="108.275" height="80.594" fill="#F1F1F1" style="stroke:#181818;stroke-width:0.5;" rx="2.5" ry="2.5"/><ellipse cx="1730.02" cy="152" rx="11" ry="11" fill="#008000" style="stroke:#181818;stroke-width:1;"/><path d="M1726.239,158.5 L1726.239,146 L1728.239,146 L1729.77,152.141 L1731.301,146 L1733.301,146 L1733.301,158.5 L1731.536,158.5 L1731.536,156 Q1731.536,155.141 1731.551,154.281 Q1731.567,153.406 1731.614,152.547 Q1731.676,151.688 1731.723,150.828 Q1731.786,149.953 1731.848,149.078 L1730.411,154.75 L1729.129,154.75 L1727.692,149.078 Q1727.754,149.953 1727.801,150.828 Q1727.864,151.688 1727.911,152.547 Q1727.973,153.406 1727.989,154.281 Q1728.004,155.141 1728.004,156 L1728.004,158.5 L1726.239,158.5 Z " fill="#000"/><text x="1744.02" y="156.847" fill="#000" font-size="14" textLength="76.275">PrixProduit</text><line x1="1716.02" y1="168" x2="1822.295" y2="168" style="stroke:#181818;stroke-width:0.5;"/><g data-visibility-modifier="IE_MANDATORY"><ellipse cx="1726.02" cy="181.648" rx="3" ry="3" fill="#000" style="stroke:#000;stroke-width:1;"/></g><text x="1735.02" y="184.995" fill="#000" font-size="14" textLength="50.347">produit</text><g data-visibility-modifier="IE_MANDATORY"><ellipse cx="1726.02" cy="197.945" rx="3" ry="3" fill="#000" style="stroke:#000;stroke-width:1;"/></g><text x="1735.02" y="201.292" fill="#000" font-size="14" textLength="73.035">prix_achat</text><line x1="1716.02" y1="208.594" x2="1822.295" y2="208.594" style="stroke:#181818;stroke-width:0.5;"/></g><!--class Transport--><g class="entity" data-qualified-name="Transport" id="ent0010" data-source-line="62"><rect x="1044.02" y="111.5" width="144.187" height="129.484" fill="#F1F1F1" style="stroke:#181818;stroke-width:0.5;" rx="2.5" ry="2.5"/><ellipse cx="1079.016" cy="127.5" rx="11" ry="11" fill="#008000" style="stroke:#181818;stroke-width:1;"/><path d="M1075.235,134 L1075.235,121.5 L1077.235,121.5 L1078.766,127.641 L1080.297,121.5 L1082.297,121.5 L1082.297,134 L1080.532,134 L1080.532,131.5 Q1080.532,130.641 1080.547,129.781 Q1080.563,128.906 1080.61,128.047 Q1080.672,127.188 1080.719,126.328 Q1080.782,125.453 1080.844,124.578 L1079.407,130.25 L1078.125,130.25 L1076.688,124.578 Q1076.75,125.453 1076.797,126.328 Q1076.86,127.188 1076.907,128.047 Q1076.969,128.906 1076.985,129.781 Q1077,130.641 1077,131.5 L1077,134 L1075.235,134 Z " fill="#000"/><text x="1097.46" y="132.347" fill="#000" font-size="14" textLength="67.751">Transport</text><line x1="1045.02" y1="143.5" x2="1187.207" y2="143.5" style="stroke:#181818;stroke-width:0.5;"/><g data-visibility-modifier="IE_MANDATORY"><ellipse cx="1055.02" cy="157.148" rx="3" ry="3" fill="#000" style="stroke:#000;stroke-width:1;"/></g><text x="1064.02" y="160.495" fill="#000" font-size="14" textLength="118.187">nombre_palettes</text><g data-visibility-modifier="IE_MANDATORY"><ellipse cx="1055.02" cy="173.445" rx="3" ry="3" fill="#000" style="stroke:#000;stroke-width:1;"/></g><text x="1064.02" y="176.792" fill="#000" font-size="14" textLength="30.625">cout</text><g data-visibility-modifier="IE_MANDATORY"><ellipse cx="1055.02" cy="189.742" rx="3" ry="3" fill="#000" style="stroke:#000;stroke-width:1;"/></g><text x="1064.02" y="193.089" fill="#000" font-size="14" textLength="33.858">delai</text><g data-visibility-modifier="IE_MANDATORY"><ellipse cx="1055.02" cy="206.039" rx="3" ry="3" fill="#000" style="stroke:#000;stroke-width:1;"/></g><text x="1064.02" y="209.386" fill="#000" font-size="14" textLength="46.211">depart</text><g data-visibility-modifier="IE_MANDATORY"><ellipse cx="1055.02" cy="222.336" rx="3" ry="3" fill="#000" style="stroke:#000;stroke-width:1;"/></g><text x="1064.02" y="225.683" fill="#000" font-size="14" textLength="49.492">arrivee</text><line x1="1045.02" y1="232.984" x2="1187.207" y2="232.984" style="stroke:#181818;stroke-width:0.5;"/></g><!--class PointDeVente--><g class="entity" data-qualified-name="PointDeVente" id="ent0011" data-source-line="70"><rect x="2436.52" y="119.5" width="149.99" height="113.188" fill="#F1F1F1" style="stroke:#181818;stroke-width:0.5;" rx="2.5" ry="2.5"/><ellipse cx="2461.497" cy="135.5" rx="11" ry="11" fill="#008000" style="stroke:#181818;stroke-width:1;"/><path d="M2457.716,142 L2457.716,129.5 L2459.716,129.5 L2461.247,135.641 L2462.778,129.5 L2464.778,129.5 L2464.778,142 L2463.013,142 L2463.013,139.5 Q2463.013,138.641 2463.028,137.781 Q2463.044,136.906 2463.091,136.047 Q2463.153,135.188 2463.2,134.328 Q2463.263,133.453 2463.325,132.578 L2461.888,138.25 L2460.606,138.25 L2459.169,132.578 Q2459.231,133.453 2459.278,134.328 Q2459.341,135.188 2459.388,136.047 Q2459.45,136.906 2459.466,137.781 Q2459.481,138.641 2459.481,139.5 L2459.481,142 L2457.716,142 Z " fill="#000"/><text x="2477.714" y="140.347" fill="#000" font-size="14" textLength="95.819">PointDeVente</text><line x1="2437.52" y1="151.5" x2="2585.51" y2="151.5" style="stroke:#181818;stroke-width:0.5;"/><g data-visibility-modifier="IE_MANDATORY"><ellipse cx="2447.52" cy="165.148" rx="3" ry="3" fill="#000" style="stroke:#000;stroke-width:1;"/></g><text x="2456.52" y="168.495" fill="#000" font-size="14" textLength="31.076">nom</text><g data-visibility-modifier="IE_MANDATORY"><ellipse cx="2447.52" cy="181.445" rx="3" ry="3" fill="#000" style="stroke:#000;stroke-width:1;"/></g><text x="2456.52" y="184.792" fill="#000" font-size="14" textLength="25.266">lieu</text><g data-visibility-modifier="IE_MANDATORY"><ellipse cx="2447.52" cy="197.742" rx="3" ry="3" fill="#000" style="stroke:#000;stroke-width:1;"/></g><text x="2456.52" y="201.089" fill="#000" font-size="14" textLength="123.99">heures_de_travail</text><g data-visibility-modifier="IE_MANDATORY"><ellipse cx="2447.52" cy="214.039" rx="3" ry="3" fill="#000" style="stroke:#000;stroke-width:1;"/></g><text x="2456.52" y="217.386" fill="#000" font-size="14" textLength="37.153">stock</text><line x1="2437.52" y1="224.688" x2="2585.51" y2="224.688" style="stroke:#181818;stroke-width:0.5;"/></g><!--class Facture--><g class="entity" data-qualified-name="Facture" id="ent0012" data-source-line="77"><rect x="2636.52" y="119.5" width="149.334" height="113.188" fill="#F1F1F1" style="stroke:#181818;stroke-width:0.5;" rx="2.5" ry="2.5"/><ellipse cx="2680.443" cy="135.5" rx="11" ry="11" fill="#008000" style="stroke:#181818;stroke-width:1;"/><path d="M2676.662,142 L2676.662,129.5 L2678.662,129.5 L2680.193,135.641 L2681.724,129.5 L2683.724,129.5 L2683.724,142 L2681.959,142 L2681.959,139.5 Q2681.959,138.641 2681.974,137.781 Q2681.99,136.906 2682.037,136.047 Q2682.099,135.188 2682.146,134.328 Q2682.209,133.453 2682.271,132.578 L2680.834,138.25 L2679.552,138.25 L2678.115,132.578 Q2678.177,133.453 2678.224,134.328 Q2678.287,135.188 2678.334,136.047 Q2678.396,136.906 2678.412,137.781 Q2678.427,138.641 2678.427,139.5 L2678.427,142 L2676.662,142 Z " fill="#000"/><text x="2700.87" y="140.347" fill="#000" font-size="14" textLength="53.061">Facture</text><line x1="2637.52" y1="151.5" x2="2784.854" y2="151.5" style="stroke:#181818;stroke-width:0.5;"/><g data-visibility-modifier="IE_MANDATORY"><ellipse cx="2647.52" cy="165.148" rx="3" ry="3" fill="#000" style="stroke:#000;stroke-width:1;"/></g><text x="2656.52" y="168.495" fill="#000" font-size="14" textLength="123.334">quantite_produits</text><g data-visibility-modifier="IE_MANDATORY"><ellipse cx="2647.52" cy="181.445" rx="3" ry="3" fill="#000" style="stroke:#000;stroke-width:1;"/></g><text x="2656.52" y="184.792" fill="#000" font-size="14" textLength="66.644">reduction</text><g data-visibility-modifier="IE_MANDATORY"><ellipse cx="2647.52" cy="197.742" rx="3" ry="3" fill="#000" style="stroke:#000;stroke-width:1;"/></g><text x="2656.52" y="201.089" fill="#000" font-size="14" textLength="107.078">point_de_vente</text><g data-visibility-modifier="IE_MANDATORY"><ellipse cx="2647.52" cy="214.039" rx="3" ry="3" fill="#000" style="stroke:#000;stroke-width:1;"/></g><text x="2656.52" y="217.386" fill="#000" font-size="14" textLength="38.452">client</text><line x1="2637.52" y1="224.688" x2="2784.854" y2="224.688" style="stroke:#181818;stroke-width:0.5;"/></g><!--class Machine--><g class="entity" data-qualified-name="Machine" id="ent0013" data-source-line="84"><rect x="386.35" y="111.26" width="155.343" height="129.484" fill="#F1F1F1" style="stroke:#181818;stroke-width:0.5;" rx="2.5" ry="2.5"/><ellipse cx="430.482" cy="127.26" rx="11" ry="11" fill="#008000" style="stroke:#181818;stroke-width:1;"/><path d="M426.701,133.76 L426.701,121.26 L428.701,121.26 L430.232,127.401 L431.763,121.26 L433.763,121.26 L433.763,133.76 L431.998,133.76 L431.998,131.26 Q431.998,130.401 432.013,129.541 Q432.029,128.666 432.076,127.807 Q432.138,126.947 432.185,126.088 Q432.248,125.213 432.31,124.338 L430.873,130.01 L429.592,130.01 L428.154,124.338 Q428.217,125.213 428.263,126.088 Q428.326,126.947 428.373,127.807 Q428.435,128.666 428.451,129.541 Q428.467,130.401 428.467,131.26 L428.467,133.76 L426.701,133.76 Z " fill="#000"/><text x="450.956" y="132.107" fill="#000" font-size="14" textLength="58.604">Machine</text><line x1="387.35" y1="143.26" x2="540.693" y2="143.26" style="stroke:#181818;stroke-width:0.5;"/><g data-visibility-modifier="IE_MANDATORY"><ellipse cx="397.35" cy="156.908" rx="3" ry="3" fill="#000" style="stroke:#000;stroke-width:1;"/></g><text x="406.35" y="160.255" fill="#000" font-size="14" textLength="31.076">nom</text><g data-visibility-modifier="IE_MANDATORY"><ellipse cx="397.35" cy="173.205" rx="3" ry="3" fill="#000" style="stroke:#000;stroke-width:1;"/></g><text x="406.35" y="176.552" fill="#000" font-size="14" textLength="26.817">prix</text><g data-visibility-modifier="IE_MANDATORY"><ellipse cx="397.35" cy="189.502" rx="3" ry="3" fill="#000" style="stroke:#000;stroke-width:1;"/></g><text x="406.35" y="192.849" fill="#000" font-size="14" textLength="93.03">duree_de_vie</text><g data-visibility-modifier="IE_MANDATORY"><ellipse cx="397.35" cy="205.799" rx="3" ry="3" fill="#000" style="stroke:#000;stroke-width:1;"/></g><text x="406.35" y="209.146" fill="#000" font-size="14" textLength="129.343">cout_maintenance</text><g data-visibility-modifier="IE_MANDATORY"><ellipse cx="397.35" cy="222.096" rx="3" ry="3" fill="#000" style="stroke:#000;stroke-width:1;"/></g><text x="406.35" y="225.443" fill="#000" font-size="14" textLength="68.441">superficie</text><line x1="387.35" y1="232.744" x2="540.693" y2="232.744" style="stroke:#181818;stroke-width:0.5;"/></g><!--class QuantiteMachine--><g class="entity" data-qualified-name="QuantiteMachine" id="ent0014" data-source-line="92"><rect x="584.52" y="136" width="151.431" height="80.594" fill="#F1F1F1" style="stroke:#181818;stroke-width:0.5;" rx="2.5" ry="2.5"/><ellipse cx="599.52" cy="152" rx="11" ry="11" fill="#008000" style="stroke:#181818;stroke-width:1;"/><path d="M595.739,158.5 L595.739,146 L597.739,146 L599.27,152.141 L600.801,146 L602.801,146 L602.801,158.5 L601.036,158.5 L601.036,156 Q601.036,155.141 601.051,154.281 Q601.067,153.406 601.114,152.547 Q601.176,151.688 601.223,150.828 Q601.286,149.953 601.348,149.078 L599.911,154.75 L598.629,154.75 L597.192,149.078 Q597.254,149.953 597.301,150.828 Q597.364,151.688 597.411,152.547 Q597.473,153.406 597.489,154.281 Q597.504,155.141 597.504,156 L597.504,158.5 L595.739,158.5 Z " fill="#000"/><text x="613.52" y="156.847" fill="#000" font-size="14" textLength="119.431">QuantiteMachine</text><line x1="585.52" y1="168" x2="734.951" y2="168" style="stroke:#181818;stroke-width:0.5;"/><g data-visibility-modifier="IE_MANDATORY"><ellipse cx="595.52" cy="181.648" rx="3" ry="3" fill="#000" style="stroke:#000;stroke-width:1;"/></g><text x="604.52" y="184.995" fill="#000" font-size="14" textLength="60.163">machine</text><g data-visibility-modifier="IE_MANDATORY"><ellipse cx="595.52" cy="197.945" rx="3" ry="3" fill="#000" style="stroke:#000;stroke-width:1;"/></g><text x="604.52" y="201.292" fill="#000" font-size="14" textLength="54.332">nombre</text><line x1="585.52" y1="208.594" x2="734.951" y2="208.594" style="stroke:#181818;stroke-width:0.5;"/></g><!--link Operation to Produit--><g class="link" data-entity-1="ent0002" data-entity-2="ent0001" id="lnk15" data-source-line="98" data-link-type="composition"><path d="M1452.71,215.91 C1466.94,218.73 1469.45,220.5 1483.52,220.5" style="stroke:#181818;stroke-width:1;" fill="none" id="Operation-to-Produit" codeLine="98"/><polygon points="1495.52,220.5,1489.52,216.5,1483.52,220.5,1489.52,224.5,1495.52,220.5" fill="#181818" style="stroke:#181818;stroke-width:1;stroke-linejoin:miter;stroke-miterlimit:10;"/></g><!--link Operation to Operation--><g class="link" data-entity-1="ent0002" data-entity-2="ent0002" id="lnk16" data-source-line="99" data-link-type="composition"><path d="M1354.64,91.15 C1356.69,46.48 1352.48,6 1342.02,6 C1325.31,6 1321.451,78.627 1336.671,135.567" style="stroke:#181818;stroke-width:1;" fill="none" id="Operation-to-Operation" codeLine="99"/><polygon points="1339.77,147.16,1342.085,140.331,1336.671,135.567,1334.356,142.396,1339.77,147.16" fill="#181818" style="stroke:#181818;stroke-width:1;stroke-linejoin:miter;stroke-miterlimit:10;"/></g><!--link Machine to Operation--><g class="link" data-entity-1="ent0013" data-entity-2="ent0002" id="lnk17" data-source-line="100" data-link-type="composition"><path d="M510.85,110.78 C528.89,90.95 551.29,71.61 576.52,61 C640.02,34.29 1136.78,26.69 1196.52,61 C1209.9,68.69 1208.2,76.7 1214.02,91 C1230.6,131.74 1182.04,187 1226.02,187" style="stroke:#181818;stroke-width:1;" fill="none" id="Machine-to-Operation" codeLine="100"/><polygon points="1238.02,187,1232.02,183,1226.02,187,1232.02,191,1238.02,187" fill="#181818" style="stroke:#181818;stroke-width:1;stroke-linejoin:miter;stroke-miterlimit:10;"/></g><!--link QuantiteProduit to Operation--><g class="link" data-entity-1="ent0003" data-entity-2="ent0002" id="lnk18" data-source-line="101" data-link-type="aggregation"><path d="M2084.32,132.12 C2063.9,106.09 2034.25,75.43 1999.52,61 C1947.09,39.21 1537.75,32.72 1488.52,61 C1475.13,68.69 1476.64,76.62 1471.02,91 C1461.65,114.95 1483.74,204 1458.02,204" style="stroke:#181818;stroke-width:1;" fill="none" id="QuantiteProduit-to-Operation" codeLine="101"/><polygon points="1446.02,204,1452.02,208,1458.02,204,1452.02,200,1446.02,204" fill="none" style="stroke:#181818;stroke-width:1;stroke-linejoin:miter;stroke-miterlimit:10;"/></g><!--link Produit to QuantiteProduit--><g class="link" data-entity-1="ent0001" data-entity-2="ent0003" id="lnk19" data-source-line="102" data-link-type="composition"><path d="M1637.79,107.6 C1657.74,88.84 1681.64,70.95 1707.52,61 C1768.09,37.72 1943.25,28.68 1999.52,61 C2012.9,68.69 2010.99,76.79 2017.02,91 C2033.06,128.83 1988.93,180 2030.02,180" style="stroke:#181818;stroke-width:1;" fill="none" id="Produit-to-QuantiteProduit" codeLine="102"/><polygon points="2042.02,180,2036.02,176,2030.02,180,2036.02,184,2042.02,180" fill="#181818" style="stroke:#181818;stroke-width:1;stroke-linejoin:miter;stroke-miterlimit:10;"/></g><!--link QuantiteProduit to Stock--><g class="link" data-entity-1="ent0003" data-entity-2="ent0004" id="lnk20" data-source-line="103" data-link-type="aggregation"><path d="M2192.79,179.34 C2207,179.73 2209.7,180 2223.52,180" style="stroke:#181818;stroke-width:1;" fill="none" id="QuantiteProduit-to-Stock" codeLine="103"/><polygon points="2235.52,180,2229.52,176,2223.52,180,2229.52,184,2235.52,180" fill="none" style="stroke:#181818;stroke-width:1;stroke-linejoin:miter;stroke-miterlimit:10;"/></g><!--link Ville to Lieu--><g class="link" data-entity-1="ent0006" data-entity-2="ent0005" id="lnk21" data-source-line="104" data-link-type="composition"><path d="M314.43,115.6 C333.89,94.12 358.65,72.44 386.52,61 C459.91,30.88 674.73,21.49 743.52,61 C789.15,87.21 721.4,171.5 774.02,171.5" style="stroke:#181818;stroke-width:1;" fill="none" id="Ville-to-Lieu" codeLine="104"/><polygon points="786.02,171.5,780.02,167.5,774.02,171.5,780.02,175.5,786.02,171.5" fill="#181818" style="stroke:#181818;stroke-width:1;stroke-linejoin:miter;stroke-miterlimit:10;"/></g><!--link QuantiteMachine to Lieu--><g class="link" data-entity-1="ent0014" data-entity-2="ent0005" id="lnk22" data-source-line="105" data-link-type="aggregation"><path d="M743.5,199.38 C757.57,201.86 760.13,203.5 774.02,203.5" style="stroke:#181818;stroke-width:1;" fill="none" id="QuantiteMachine-to-Lieu" codeLine="105"/><polygon points="786.02,203.5,780.02,199.5,774.02,203.5,780.02,207.5,786.02,203.5" fill="none" style="stroke:#181818;stroke-width:1;stroke-linejoin:miter;stroke-miterlimit:10;"/></g><!--link Pays to Ville--><g class="link" data-entity-1="ent0007" data-entity-2="ent0006" id="lnk23" data-source-line="106" data-link-type="composition"><path d="M153.3,205.48 C167.09,209.07 169.58,211.5 183.52,211.5" style="stroke:#181818;stroke-width:1;" fill="none" id="Pays-to-Ville" codeLine="106"/><polygon points="195.52,211.5,189.52,207.5,183.52,211.5,189.52,215.5,195.52,211.5" fill="#181818" style="stroke:#181818;stroke-width:1;stroke-linejoin:miter;stroke-miterlimit:10;"/></g><!--link PrixProduit to Fournisseur--><g class="link" data-entity-1="ent0009" data-entity-2="ent0008" id="lnk24" data-source-line="107" data-link-type="aggregation"><path d="M1830.94,191.76 C1844.84,194.24 1847.61,196 1861.52,196" style="stroke:#181818;stroke-width:1;" fill="none" id="PrixProduit-to-Fournisseur" codeLine="107"/><polygon points="1873.52,196,1867.52,192,1861.52,196,1867.52,200,1873.52,196" fill="none" style="stroke:#181818;stroke-width:1;stroke-linejoin:miter;stroke-miterlimit:10;"/></g><!--link Produit to PrixProduit--><g class="link" data-entity-1="ent0001" data-entity-2="ent0009" id="lnk25" data-source-line="108" data-link-type="composition"><path d="M1671.51,179.45 C1685.73,179.78 1688.27,180 1702.02,180" style="stroke:#181818;stroke-width:1;" fill="none" id="Produit-to-PrixProduit" codeLine="108"/><polygon points="1714.02,180,1708.02,176,1702.02,180,1708.02,184,1714.02,180" fill="#181818" style="stroke:#181818;stroke-width:1;stroke-linejoin:miter;stroke-miterlimit:10;"/></g><!--link Lieu to Transport--><g class="link" data-entity-1="ent0005" data-entity-2="ent0010" id="lnk26" data-source-line="109" data-link-type="composition"><path d="M1001.01,200.66 C1015.08,202.41 1017.34,203.5 1031.02,203.5" style="stroke:#181818;stroke-width:1;" fill="none" id="Lieu-to-Transport" codeLine="109"/><polygon points="1043.02,203.5,1037.02,199.5,1031.02,203.5,1037.02,207.5,1043.02,203.5" fill="#181818" style="stroke:#181818;stroke-width:1;stroke-linejoin:miter;stroke-miterlimit:10;"/></g><!--link Lieu to Transport--><g class="link" data-entity-1="ent0005" data-entity-2="ent0010" id="lnk27" data-source-line="110" data-link-type="composition"><path d="M1000.77,215.99 C1014.81,218.77 1017.13,220.5 1031.02,220.5" style="stroke:#181818;stroke-width:1;" fill="none" id="Lieu-to-Transport-1" codeLine="110"/><polygon points="1043.02,220.5,1037.02,216.5,1031.02,220.5,1037.02,224.5,1043.02,220.5" fill="#181818" style="stroke:#181818;stroke-width:1;stroke-linejoin:miter;stroke-miterlimit:10;"/></g><!--link Lieu to PointDeVente--><g class="link" data-entity-1="ent0005" data-entity-2="ent0011" id="lnk28" data-source-line="111" data-link-type="composition"><path d="M957.63,107.75 C980.7,88.88 1007.95,70.88 1036.52,61 C1107.77,36.37 2328.15,23.45 2393.52,61 C2406.9,68.69 2405.02,76.78 2411.02,91 C2426.88,128.61 2382.71,179.5 2423.52,179.5" style="stroke:#181818;stroke-width:1;" fill="none" id="Lieu-to-PointDeVente" codeLine="111"/><polygon points="2435.52,179.5,2429.52,175.5,2423.52,179.5,2429.52,183.5,2435.52,179.5" fill="#181818" style="stroke:#181818;stroke-width:1;stroke-linejoin:miter;stroke-miterlimit:10;"/></g><!--link Stock to PointDeVente--><g class="link" data-entity-1="ent0004" data-entity-2="ent0011" id="lnk29" data-source-line="112" data-link-type="composition"><path d="M2393.47,206.26 C2407.31,209.42 2409.69,211.5 2423.52,211.5" style="stroke:#181818;stroke-width:1;" fill="none" id="Stock-to-PointDeVente" codeLine="112"/><polygon points="2435.52,211.5,2429.52,207.5,2423.52,211.5,2429.52,215.5,2435.52,211.5" fill="#181818" style="stroke:#181818;stroke-width:1;stroke-linejoin:miter;stroke-miterlimit:10;"/></g><!--link QuantiteProduit to Facture--><g class="link" data-entity-1="ent0003" data-entity-2="ent0012" id="lnk30" data-source-line="113" data-link-type="aggregation"><path d="M2143.72,132.12 C2164.14,106.09 2193.79,75.43 2228.52,61 C2303.42,29.88 2523.18,20.6 2593.52,61 C2636.21,85.52 2574.29,163.5 2623.52,163.5" style="stroke:#181818;stroke-width:1;" fill="none" id="QuantiteProduit-to-Facture" codeLine="113"/><polygon points="2635.52,163.5,2629.52,159.5,2623.52,163.5,2629.52,167.5,2635.52,163.5" fill="none" style="stroke:#181818;stroke-width:1;stroke-linejoin:miter;stroke-miterlimit:10;"/></g><!--link PointDeVente to Facture--><g class="link" data-entity-1="ent0011" data-entity-2="ent0012" id="lnk31" data-source-line="114" data-link-type="composition"><path d="M2593.44,192.54 C2607.42,194.32 2609.84,195.5 2623.52,195.5" style="stroke:#181818;stroke-width:1;" fill="none" id="PointDeVente-to-Facture" codeLine="114"/><polygon points="2635.52,195.5,2629.52,191.5,2623.52,195.5,2629.52,199.5,2635.52,195.5" fill="#181818" style="stroke:#181818;stroke-width:1;stroke-linejoin:miter;stroke-miterlimit:10;"/></g><!--link Machine to QuantiteMachine--><g class="link" data-entity-1="ent0013" data-entity-2="ent0014" id="lnk32" data-source-line="115" data-link-type="composition"><path d="M542.14,179.36 C555.91,179.74 558.14,180 571.52,180" style="stroke:#181818;stroke-width:1;" fill="none" id="Machine-to-QuantiteMachine" codeLine="115"/><polygon points="583.52,180,577.52,176,571.52,180,577.52,184,583.52,180" fill="#181818" style="stroke:#181818;stroke-width:1;stroke-linejoin:miter;stroke-miterlimit:10;"/></g><?plantuml-src bLGzRzim4DtrApGsHhDq989CHQS6TT4Wgy3Gb-PGaNJu8RWe-jzx92NnB2jAEXYsZ_VvxhrJlVI-tJjxY1ZQcvlsmzt7dmx0NBMtj-sVfcrtnkhqTNHuwWxG3M029CCXab-s88n-ZmwwetJqwI4KBti49mDQuvk_JQDokM-JRRFW7DdvY8CSgoeRG_hMKZsZoQQNI8yOg7GPmoVZCr1xFhKNd1mazYNOUAjroGezgE3m9KBjxFkOQXEGiKoTkSR_25RzMezQxN84odTQdcgMhmXn4ve1-pwFxYE1z8GApu4OmV7lclaX9Tii5-G9EjJQFcAFu62cW_vKXlZDbhkdVzlP1bcIEdpY3QLnP2-HEAJHe8ww9lrYepFeFItrRPBE0DUUoFpUbUOKX9yCDVxUIUEFrhskaCByianEqmFGHEK72IERf7Cu05l0tg89d-4X2MjpEW8_lifjdwZ749CgaDT_SD718Qh4aen2wkbCxegg6uR9NU7Oc-jOEnK97I8fbG0ZZLfI-KAEcxNO9QXoREgDkTvDzqq8TetE7EO_pAMUdQdykUDKTtaphYttkeHwzjijpuqG4mzNSkRJifQlw9UofRCXHBaDI-GeGNc-l15Pi1IUyr0BISrSC1JAv9Twv1fZqx2WEac-PVGuIqY8KGehBvCqfYUk324o_Sk5lNWhx5-1RTJ1wYAuxYZZxBeWFrl_0jPAWdy0?></g></svg>
